<svg xmlns="http://www.w3.org/2000/svg" width="72.573" height="72.572" viewBox="0 0 72.573 72.572"><defs><style>.a{fill:#fff;}</style></defs><path class="a" d="M36.286,0A36.286,36.286,0,1,0,72.573,36.286,36.29,36.29,0,0,0,36.286,0ZM25.742,54.854H16.9V28.267h8.837ZM21.324,24.636h-.058a4.575,4.575,0,0,1-4.884-4.593c0-2.609,1.977-4.594,5-4.594a4.593,4.593,0,0,1,4.941,4.594c0,2.551-1.918,4.593-5,4.593ZM57.608,54.854H48.771V40.631c0-3.575-1.28-6.012-4.477-6.012A4.838,4.838,0,0,0,39.76,37.85a6.052,6.052,0,0,0-.291,2.157V54.854H30.633s.116-24.093,0-26.587h8.837v3.764a8.773,8.773,0,0,1,7.964-4.388c5.814,0,10.174,3.8,10.174,11.966Zm0,0"/></svg>