<svg xmlns="http://www.w3.org/2000/svg" width="72.573" height="72.572" viewBox="0 0 72.573 72.572"><defs><style>.a{fill:#fff;}</style></defs><path class="a" d="M220.891,213.945A6.945,6.945,0,1,1,213.945,207,6.945,6.945,0,0,1,220.891,213.945Zm0,0" transform="translate(-177.659 -177.659)"/><path class="a" d="M168.81,140.282a6.9,6.9,0,0,0-3.954-3.954,11.528,11.528,0,0,0-3.869-.717c-2.2-.1-2.856-.122-8.42-.122s-6.223.021-8.42.121a11.536,11.536,0,0,0-3.869.718,6.9,6.9,0,0,0-3.955,3.954,11.532,11.532,0,0,0-.717,3.869c-.1,2.2-.122,2.856-.122,8.42s.022,6.222.122,8.42a11.529,11.529,0,0,0,.717,3.869,6.9,6.9,0,0,0,3.954,3.954,11.517,11.517,0,0,0,3.869.718c2.2.1,2.855.121,8.419.121s6.223-.021,8.42-.121a11.517,11.517,0,0,0,3.869-.718,6.9,6.9,0,0,0,3.954-3.954,11.542,11.542,0,0,0,.717-3.869c.1-2.2.121-2.856.121-8.42s-.021-6.223-.121-8.42A11.515,11.515,0,0,0,168.81,140.282ZM152.567,163.27a10.7,10.7,0,1,1,10.7-10.7A10.7,10.7,0,0,1,152.567,163.27Zm11.122-19.321a2.5,2.5,0,1,1,2.5-2.5A2.5,2.5,0,0,1,163.689,143.948Zm0,0" transform="translate(-116.281 -116.284)"/><path class="a" d="M36.286,0A36.286,36.286,0,1,0,72.573,36.286,36.29,36.29,0,0,0,36.286,0ZM57,44.876a15.287,15.287,0,0,1-.968,5.058,10.654,10.654,0,0,1-6.094,6.094A15.3,15.3,0,0,1,44.877,57c-2.222.1-2.932.126-8.59.126S29.918,57.1,27.7,57a15.3,15.3,0,0,1-5.057-.968,10.654,10.654,0,0,1-6.094-6.094,15.283,15.283,0,0,1-.968-5.057c-.1-2.222-.126-2.932-.126-8.591s.024-6.368.126-8.59a15.288,15.288,0,0,1,.968-5.058,10.661,10.661,0,0,1,6.094-6.094,15.3,15.3,0,0,1,5.058-.968c2.222-.1,2.932-.126,8.59-.126s6.368.024,8.59.126a15.3,15.3,0,0,1,5.058.967,10.657,10.657,0,0,1,6.094,6.094A15.285,15.285,0,0,1,57,27.7c.1,2.222.125,2.932.125,8.59S57.1,42.654,57,44.876Zm0,0" transform="translate(0)"/></svg>