<svg xmlns="http://www.w3.org/2000/svg" width="126.501" height="187.828" viewBox="0 0 126.501 187.828"><defs><style>.a{fill:#012656;stroke:#305bc9;stroke-width:4px;}</style></defs><g transform="translate(2 2)"><path class="a" d="M30.462,260.925a30.474,30.474,0,0,0,30.462-30.462V200H30.462a30.462,30.462,0,0,0,0,60.925Z" transform="translate(0 -77.097)"/><path class="a" d="M0,130.462A30.474,30.474,0,0,1,30.462,100H60.925v60.925H30.462A30.474,30.474,0,0,1,0,130.462Z" transform="translate(0 -38.548)"/><path class="a" d="M0,30.462A30.474,30.474,0,0,1,30.462,0H60.925V60.925H30.462A30.474,30.474,0,0,1,0,30.462Z"/><path class="a" d="M100,0h30.462a30.462,30.462,0,0,1,0,60.925H100Z" transform="translate(-38.424)"/><path class="a" d="M160.925,130.462A30.462,30.462,0,1,1,130.462,100,30.474,30.474,0,0,1,160.925,130.462Z" transform="translate(-38.424 -38.548)"/></g></svg>