<svg xmlns="http://www.w3.org/2000/svg" width="202.808" height="169.164" viewBox="0 0 202.808 169.164"><defs><style>.a{fill:#012656;}</style></defs><g transform="translate(0 -42.468)"><path class="a" d="M198.843,76.488,103.381,42.807a5.938,5.938,0,0,0-3.954,0L3.965,76.488a5.942,5.942,0,0,0-.013,11.2l95.462,33.937a5.937,5.937,0,0,0,3.98,0L198.856,87.69a5.942,5.942,0,0,0-.013-11.2Z" transform="translate(0 0)"/><path class="a" d="M448.722,249.561V197.734l-11.883,4.224v47.6a11.93,11.93,0,0,0,0,20.693v29.2a5.942,5.942,0,0,0,11.883,0v-29.2a11.93,11.93,0,0,0,0-20.694Z" transform="translate(-260.185 -93.764)"/><path class="a" d="M165.081,242.52a17.78,17.78,0,0,1-5.971-1.03l-53.666-19.079v26.146c0,6.4,6.673,11.806,19.834,16.078,11.472,3.723,25.607,5.774,39.8,5.774s28.33-2.051,39.8-5.774c13.161-4.272,19.834-9.681,19.834-16.078V222.412l-53.666,19.079A17.783,17.783,0,0,1,165.081,242.52Z" transform="translate(-63.677 -108.667)"/></g></svg>