<svg xmlns="http://www.w3.org/2000/svg" width="187.828" height="187.828" viewBox="0 0 187.828 187.828"><defs><style>.a{fill:#012656;stroke:#305bc9;stroke-width:2px;}</style></defs><g transform="translate(1 1)"><path class="a" d="M61.942,106.114H0V7.478A7.478,7.478,0,0,1,7.478,0H54.465a7.478,7.478,0,0,1,7.478,7.478v98.635ZM28.426,38.345a2.8,2.8,0,1,0,0,5.608h2.286V64.965a2.8,2.8,0,0,0,5.608,0V41.15a2.808,2.808,0,0,0-2.8-2.8Z" transform="translate(61.943 65.132)"/><path class="a" d="M56.334,44.421H0V7.478A7.478,7.478,0,0,1,7.478,0H48.856a7.478,7.478,0,0,1,7.478,7.478V44.42ZM22.073,25.5a2.807,2.807,0,0,0-2.8,2.8,8.9,8.9,0,1,0,15.373-6.094,8.9,8.9,0,1,0-15.206-7.814,2.8,2.8,0,0,0,5.5,1.081,3.29,3.29,0,1,1,3.227,3.93,2.8,2.8,0,0,0,0,5.608,3.29,3.29,0,1,1-3.258,3.751,3.379,3.379,0,0,1-.032-.462A2.807,2.807,0,0,0,22.073,25.5Z" transform="translate(123.885 126.825)"/><path class="a" d="M56.334,61.246H0V7.478A7.478,7.478,0,0,1,7.478,0H48.856a7.478,7.478,0,0,1,7.478,7.478V61.246ZM27.605,21.287a3.294,3.294,0,0,1,3.286,3.138l-.072.563a13.114,13.114,0,0,1-2.067,4.071c-3.77,5.386-6.02,8.333-7.229,9.916h0v0c-1.513,1.982-2.2,2.886-1.728,4.434a2.915,2.915,0,0,0,1.894,1.919c.373.124.725.241,5.4.241,1.91,0,4.415-.02,7.658-.059a2.8,2.8,0,0,0-.035-5.608h-.036c-2.421.03-4.858.049-6.861.053,1.711-2.293,3.522-4.806,5.535-7.683a18.2,18.2,0,0,0,2.967-6.145c.021-.094.038-.188.049-.278l.118-.921a2.8,2.8,0,0,0,.023-.356,8.9,8.9,0,0,0-17.63-1.722,2.8,2.8,0,0,0,5.5,1.081A3.292,3.292,0,0,1,27.605,21.287Z" transform="translate(5.609 110)"/><path class="a" d="M182.588,486.405H3.24A3.24,3.24,0,0,1,0,483.165v-8.1a3.239,3.239,0,0,1,3.24-3.24H182.588a3.239,3.239,0,0,1,3.24,3.24v8.1A3.24,3.24,0,0,1,182.588,486.405Z" transform="translate(0 -300.577)"/><g transform="translate(54.13 0)"><g transform="translate(0 3.349)"><g transform="translate(44.869)"><path class="a" d="M280.352,37.717h-4.78a2.8,2.8,0,0,1-2.8-2.8V12.031a2.8,2.8,0,0,1,2.8-2.8H300.33a5.132,5.132,0,0,1,4.608,7.39l-4.074,8.311A22.991,22.991,0,0,1,280.352,37.717Zm-1.975-5.608h1.975a17.346,17.346,0,0,0,15.476-9.649l3.738-7.625H278.376Z" transform="translate(-272.768 -9.227)"/></g><path class="a" d="M179.036,37.717h-4.78a22.99,22.99,0,0,1-20.511-12.788l-4.074-8.312a5.132,5.132,0,0,1,4.608-7.39h24.758a2.8,2.8,0,0,1,2.8,2.8V34.913A2.8,2.8,0,0,1,179.036,37.717ZM155.043,14.835l3.738,7.625a17.346,17.346,0,0,0,15.476,9.649h1.976V14.835Z" transform="translate(-149.142 -9.227)"/></g><g transform="translate(19.076)"><path class="a" d="M238.049,102.616H251.08v14.3H238.049Z" transform="translate(-224.856 -65.372)"/><path class="a" d="M243.37,155.6H209.925v-9.245a4.344,4.344,0,0,1,4.344-4.344h24.758a4.344,4.344,0,0,1,4.344,4.344V155.6Z" transform="translate(-206.94 -90.471)"/><path class="a" d="M227.923,37.244H214.892A44.38,44.38,0,0,1,201.7,5.67V1.448A1.448,1.448,0,0,1,203.148,0h36.52a1.448,1.448,0,0,1,1.448,1.448V5.67a44.377,44.377,0,0,1-13.192,31.574Z" transform="translate(-201.7 0)"/></g></g></g></svg>