<svg xmlns="http://www.w3.org/2000/svg" width="1668.779" height="487.173" viewBox="0 0 1668.779 487.173"><defs><style>.a{opacity:0.7;}.b,.f,.i{fill:#305bc9;}.c,.d,.e,.j{fill:none;}.d,.e,.g{stroke:#fff;}.d{stroke-width:5px;}.e{stroke-width:8px;}.f{fill-rule:evenodd;}.g{fill:#fff;stroke-width:2px;}.h,.i{stroke:none;}</style></defs><g transform="translate(-245.589 -8477.258)"><g class="a" transform="translate(3879.421 8543.779)"><path class="b" d="M30,0l30,49.75H0Z" transform="translate(-2422.487 -27.922)"/><g class="c" transform="translate(-2422.487 21.828)"><path class="h" d="M30,0l30,49.75H0Z"/><path class="i" d="M 29.99611854553223 15.49344635009766 L 14.16517639160156 41.74964141845703 L 45.82706451416016 41.74964141845703 L 29.99611854553223 15.49344635009766 M 29.99611854553223 -7.62939453125e-06 L 59.99223709106445 49.74964141845703 L 0 49.74964141845703 L 29.99611854553223 -7.62939453125e-06 Z"/></g><path class="b" d="M30,0l30,49.75H0Z" transform="translate(-2422.487 71.578)"/></g><g class="a" transform="translate(631.296 10899.745) rotate(90)"><path class="b" d="M22.224,0,44.447,36.859H0Z" transform="translate(-2422.487 -27.922)"/><g class="c" transform="translate(-2422.487 8.937)"><path class="h" d="M22.224,0,44.447,36.859H0Z"/><path class="i" d="M 22.22365188598633 9.683414459228516 L 8.853237152099609 31.85873031616211 L 35.59406661987305 31.85873031616211 L 22.22365188598633 9.683414459228516 M 22.22365188598633 -3.814697265625e-06 L 44.44730758666992 36.85873031616211 L -3.814697265625e-06 36.85873031616211 L 22.22365188598633 -3.814697265625e-06 Z"/></g><path class="b" d="M22.224,0,44.447,36.859H0Z" transform="translate(-2422.487 45.796)"/></g><g class="a" transform="translate(372.308 7948.93)"><path class="d" d="M216.128,91.421H5L163.346,0Z" transform="translate(914.487 910.449)"/><path class="b" d="M211.127,91.421H0L158.345,0l52.782,91.421h0Z" transform="translate(905.487 924.08)"/></g><g class="a" transform="translate(990.422 8232.825) rotate(45)"><g class="e" transform="matrix(-0.259, -0.966, 0.966, -0.259, -81.878, 957.714)"><rect class="h" width="166.242" height="166.242"/><rect class="j" x="4" y="4" width="158.242" height="158.242"/></g><rect class="b" width="166.242" height="166.242" transform="matrix(-0.259, -0.966, 0.966, -0.259, -108.147, 945.205)"/></g><g class="a" transform="translate(1623.469 8745)"><path class="f" d="M142.9,0H-52V95.543H142.9Z" transform="translate(145.908)"/><path class="g" d="M290.941,46.648c-6.373,0-9.485-3.814-12.6-7.447-2.964-3.633-5.78-7.084-11.56-7.084s-8.6,3.451-11.561,7.084c-3.112,3.633-6.225,7.447-12.6,7.447s-9.485-3.814-12.6-7.447c-2.964-3.633-5.78-7.084-11.561-7.084s-8.6,3.451-11.56,7.084c-3.112,3.633-6.225,7.447-12.6,7.447s-9.485-3.814-12.6-7.447c-2.965-3.633-5.781-7.084-11.56-7.084s-8.6,3.451-11.56,7.084c-3.113,3.633-6.225,7.447-12.6,7.447s-9.485-3.814-12.6-7.447c-2.964-3.633-5.78-7.084-11.56-7.084s-8.6,3.451-11.56,7.084c-3.113,3.633-6.225,7.447-12.6,7.447s-9.485-3.814-12.6-7.447c-2.964-3.633-5.78-7.084-11.56-7.084s-8.6,3.451-11.56,7.084c-3.113,3.633-6.225,7.447-12.6,7.447s-9.485-3.814-12.6-7.447c-2.964-3.633-5.78-7.084-11.56-7.084V30.3c6.374,0,9.485,3.814,12.6,7.447,2.963,3.633,5.78,7.084,11.56,7.084s8.6-3.451,11.56-7.084c3.113-3.633,6.225-7.447,12.6-7.447s9.485,3.814,12.6,7.447c2.963,3.633,5.78,7.084,11.56,7.084s8.6-3.451,11.56-7.084c3.113-3.633,6.225-7.447,12.6-7.447s9.485,3.814,12.6,7.447c2.963,3.633,5.78,7.084,11.56,7.084s8.6-3.451,11.56-7.084c3.113-3.633,6.225-7.447,12.6-7.447s9.485,3.814,12.6,7.447c2.964,3.633,5.78,7.084,11.56,7.084s8.6-3.451,11.561-7.084c3.112-3.633,6.225-7.447,12.6-7.447s9.485,3.814,12.6,7.447c2.964,3.633,5.78,7.084,11.56,7.084s8.6-3.451,11.561-7.084c3.112-3.633,6.225-7.447,12.6-7.447s9.485,3.814,12.6,7.447c2.964,3.633,5.78,7.084,11.56,7.084s8.6-3.451,11.561-7.084c3.112-3.633,6.225-7.447,12.6-7.447v1.816c-5.78,0-8.6,3.451-11.56,7.084C300.426,42.833,297.314,46.648,290.941,46.648Z" transform="translate(-25.2 24.737)"/><path class="g" d="M290.941,56.648c-6.373,0-9.485-3.814-12.6-7.447-2.964-3.633-5.78-7.084-11.56-7.084s-8.6,3.451-11.561,7.084c-3.112,3.633-6.225,7.447-12.6,7.447s-9.485-3.814-12.6-7.447c-2.964-3.633-5.78-7.084-11.561-7.084s-8.6,3.451-11.56,7.084c-3.112,3.633-6.225,7.447-12.6,7.447s-9.485-3.814-12.6-7.447c-2.965-3.633-5.781-7.084-11.56-7.084s-8.6,3.451-11.56,7.084c-3.113,3.633-6.225,7.447-12.6,7.447s-9.485-3.814-12.6-7.447c-2.964-3.633-5.78-7.084-11.56-7.084s-8.6,3.451-11.56,7.084c-3.113,3.633-6.225,7.447-12.6,7.447s-9.485-3.814-12.6-7.447c-2.964-3.633-5.78-7.084-11.56-7.084s-8.6,3.451-11.56,7.084c-3.113,3.633-6.225,7.447-12.6,7.447s-9.485-3.814-12.6-7.447c-2.964-3.633-5.78-7.084-11.56-7.084V40.3c6.374,0,9.485,3.815,12.6,7.447,2.963,3.633,5.78,7.084,11.56,7.084s8.6-3.451,11.56-7.084c3.113-3.633,6.225-7.447,12.6-7.447s9.485,3.815,12.6,7.447c2.963,3.633,5.78,7.084,11.56,7.084s8.6-3.451,11.56-7.084c3.113-3.633,6.225-7.447,12.6-7.447s9.485,3.815,12.6,7.447c2.963,3.633,5.78,7.084,11.56,7.084s8.6-3.451,11.56-7.084c3.113-3.633,6.225-7.447,12.6-7.447s9.485,3.815,12.6,7.447c2.964,3.633,5.78,7.084,11.56,7.084s8.6-3.451,11.561-7.084c3.112-3.633,6.225-7.447,12.6-7.447s9.485,3.815,12.6,7.447c2.964,3.633,5.78,7.084,11.56,7.084s8.6-3.451,11.561-7.084c3.112-3.633,6.225-7.447,12.6-7.447s9.485,3.815,12.6,7.447c2.964,3.633,5.78,7.084,11.56,7.084s8.6-3.451,11.561-7.084c3.112-3.633,6.225-7.447,12.6-7.447v1.816c-5.78,0-8.6,3.451-11.56,7.084C300.426,52.833,297.314,56.648,290.941,56.648Z" transform="translate(-25.2 32.901)"/><path class="g" d="M290.941,66.648c-6.373,0-9.485-3.814-12.6-7.447-2.964-3.633-5.78-7.084-11.56-7.084s-8.6,3.451-11.561,7.084c-3.112,3.633-6.225,7.447-12.6,7.447s-9.485-3.814-12.6-7.447c-2.964-3.633-5.78-7.084-11.561-7.084s-8.6,3.451-11.56,7.084c-3.112,3.633-6.225,7.447-12.6,7.447s-9.485-3.814-12.6-7.447c-2.965-3.633-5.781-7.084-11.56-7.084s-8.6,3.451-11.56,7.084c-3.113,3.633-6.225,7.447-12.6,7.447s-9.485-3.814-12.6-7.447c-2.964-3.633-5.78-7.084-11.56-7.084s-8.6,3.451-11.56,7.084c-3.113,3.633-6.225,7.447-12.6,7.447s-9.485-3.814-12.6-7.447c-2.964-3.633-5.78-7.084-11.56-7.084s-8.6,3.451-11.56,7.084c-3.113,3.633-6.225,7.447-12.6,7.447s-9.485-3.814-12.6-7.447c-2.964-3.633-5.78-7.084-11.56-7.084V50.3c6.374,0,9.485,3.815,12.6,7.447,2.963,3.633,5.78,7.084,11.56,7.084s8.6-3.451,11.56-7.084c3.113-3.633,6.225-7.447,12.6-7.447s9.485,3.815,12.6,7.447c2.963,3.633,5.78,7.084,11.56,7.084s8.6-3.451,11.56-7.084c3.113-3.633,6.225-7.447,12.6-7.447s9.485,3.815,12.6,7.447c2.963,3.633,5.78,7.084,11.56,7.084s8.6-3.451,11.56-7.084c3.113-3.633,6.225-7.447,12.6-7.447s9.485,3.815,12.6,7.447c2.964,3.633,5.78,7.084,11.56,7.084s8.6-3.451,11.561-7.084c3.112-3.633,6.225-7.447,12.6-7.447s9.485,3.815,12.6,7.447c2.964,3.633,5.78,7.084,11.56,7.084s8.6-3.451,11.561-7.084c3.112-3.633,6.225-7.447,12.6-7.447s9.485,3.815,12.6,7.447c2.964,3.633,5.78,7.084,11.56,7.084s8.6-3.451,11.561-7.084c3.112-3.633,6.225-7.447,12.6-7.447v1.816c-5.78,0-8.6,3.451-11.56,7.084C300.426,62.833,297.314,66.648,290.941,66.648Z" transform="translate(-25.2 41.065)"/><path class="g" d="M290.941,76.648c-6.373,0-9.485-3.814-12.6-7.447-2.964-3.633-5.78-7.084-11.56-7.084s-8.6,3.451-11.561,7.084c-3.112,3.633-6.225,7.447-12.6,7.447s-9.485-3.814-12.6-7.447c-2.964-3.633-5.78-7.084-11.561-7.084s-8.6,3.451-11.56,7.084c-3.112,3.633-6.225,7.447-12.6,7.447s-9.485-3.814-12.6-7.447c-2.965-3.633-5.781-7.084-11.56-7.084s-8.6,3.451-11.56,7.084c-3.113,3.633-6.225,7.447-12.6,7.447s-9.485-3.814-12.6-7.447c-2.964-3.633-5.78-7.084-11.56-7.084s-8.6,3.451-11.56,7.084c-3.113,3.633-6.225,7.447-12.6,7.447s-9.485-3.814-12.6-7.447c-2.964-3.633-5.78-7.084-11.56-7.084s-8.6,3.451-11.56,7.084c-3.113,3.633-6.225,7.447-12.6,7.447s-9.485-3.814-12.6-7.447c-2.964-3.633-5.78-7.084-11.56-7.084V60.3c6.374,0,9.485,3.815,12.6,7.447,2.963,3.633,5.78,7.084,11.56,7.084s8.6-3.451,11.56-7.084c3.113-3.633,6.225-7.447,12.6-7.447s9.485,3.815,12.6,7.447c2.963,3.633,5.78,7.084,11.56,7.084s8.6-3.451,11.56-7.084c3.113-3.633,6.225-7.447,12.6-7.447s9.485,3.815,12.6,7.447c2.963,3.633,5.78,7.084,11.56,7.084s8.6-3.451,11.56-7.084c3.113-3.633,6.225-7.447,12.6-7.447s9.485,3.815,12.6,7.447c2.964,3.633,5.78,7.084,11.56,7.084s8.6-3.451,11.561-7.084c3.112-3.633,6.225-7.447,12.6-7.447s9.485,3.815,12.6,7.447c2.964,3.633,5.78,7.084,11.56,7.084s8.6-3.451,11.561-7.084c3.112-3.633,6.225-7.447,12.6-7.447s9.485,3.815,12.6,7.447c2.964,3.633,5.78,7.084,11.56,7.084s8.6-3.451,11.561-7.084c3.112-3.633,6.225-7.447,12.6-7.447v1.816c-5.78,0-8.6,3.451-11.56,7.084C300.426,72.833,297.314,76.648,290.941,76.648Z" transform="translate(-25.2 49.23)"/></g></g></svg>