<svg xmlns="http://www.w3.org/2000/svg" width="147.568" height="149.077" viewBox="0 0 147.568 149.077"><defs><style>.a{fill:#012656;}</style></defs><g transform="translate(-7.884 -5.238)"><g transform="translate(38.607 48.329)"><path class="a" d="M131.866,332.8a2.671,2.671,0,0,1-.186,1.89l-7.986,15.973a2.664,2.664,0,0,1-4.765,0l-7.986-15.973a2.657,2.657,0,0,1-.186-1.89l6.679-24.486L108,311.459v48.66h26.621v-48.66l-9.434-3.144Z" transform="translate(-108 -254.132)"/><rect class="a" width="12" height="4" transform="translate(20.405 0.043)"/></g><path class="a" d="M118.638,97.179c-14.413,0-22.055-6.647-23.6-15.371-1.627.383-3.237.809-4.837,1.262-.812.232-1.616.49-2.422.74-.753.232-1.509.458-2.257.708-1.025.341-2.039.708-3.053,1.081-.49.178-.98.354-1.464.538q-1.741.667-3.458,1.395c-.3.125-.594.25-.889.378q-1.917.831-3.8,1.73l-.346.168a110.962,110.962,0,0,0-12.288,6.948,37.043,37.043,0,0,0,13.284,26.6c.484.4.988.775,1.5,1.137h0a25.022,25.022,0,0,0,3.245,1.951c.072.035.141.075.213.109a24.632,24.632,0,0,0,3.36,1.358c.088.029.176.056.266.083a25.3,25.3,0,0,0,3.522.823c.04.005.08.008.117.016a24.824,24.824,0,0,0,7.4,0c.04-.005.077-.008.117-.016A24.632,24.632,0,0,0,96.769,128l.261-.08a24.836,24.836,0,0,0,3.365-1.358l.208-.106a24.872,24.872,0,0,0,3.248-1.951h0c.508-.362,1.012-.735,1.5-1.137A37.051,37.051,0,0,0,118.638,97.179Z" transform="translate(-37.509 -54.671)"/><path class="a" d="M204,299.589v50.58h23.959s5.99-32.04,0-46.233S204,293.4,204,293.4Z" transform="translate(-133.448 -195.854)"/><g transform="translate(110.484 4.644)"><path class="a" d="M341.341,302.6a4.934,4.934,0,0,1-8.058,0l-3.916-5.55L324,299.537v25.348l11.428-11.428a2.661,2.661,0,0,1,3.764,0l11.428,11.428V299.537l-5.369-2.481Z" transform="translate(-324 -202.937)"/></g><ellipse class="a" cx="20" cy="19.5" rx="20" ry="19.5" transform="translate(104.012 50.372)"/><path class="a" d="M325.186,134.64l2.75-5.944-6.53-.588a4.926,4.926,0,0,1-4.467-4.475l-.588-6.525-5.95,2.75a4.925,4.925,0,0,1-6.1-1.632l-3.78-5.361-3.783,5.364a4.919,4.919,0,0,1-6.1,1.629l-5.944-2.75-.588,6.53a4.926,4.926,0,0,1-4.475,4.467l-6.525.588,2.75,5.95a4.92,4.92,0,0,1-1.632,6.1l-5.361,3.78,5.364,3.783a4.922,4.922,0,0,1,1.629,6.1l-2.75,5.944,6.53.588a4.926,4.926,0,0,1,4.467,4.475l.588,6.525,5.95-2.75a5.113,5.113,0,0,1,.937-.317c.107-.027.213-.037.319-.053a4.851,4.851,0,0,1,.647-.069c.056,0,.109-.019.165-.019s.109.019.162.019a4.877,4.877,0,0,1,.836.1c.067.013.136.019.2.037a4.877,4.877,0,0,1,.969.359c.075.037.144.083.216.122a4.808,4.808,0,0,1,.684.461c.08.064.157.125.232.192a4.978,4.978,0,0,1,.727.8l3.783,5.361,3.783-5.364a4.932,4.932,0,0,1,6.1-1.629l5.944,2.75.588-6.527a4.926,4.926,0,0,1,4.475-4.467l6.525-.588-2.75-5.95a4.92,4.92,0,0,1,1.632-6.1l5.361-3.783-5.364-3.783A4.921,4.921,0,0,1,325.186,134.64Zm-24.664,33.84a23.959,23.959,0,1,1,23.959-23.959A23.985,23.985,0,0,1,300.522,168.48Z" transform="translate(-176.728 -75.393)"/><path class="a" d="M128.251,232.956c-.12.029-.24.051-.359.077q-1.466.327-2.95.506l-.327.043a26.857,26.857,0,0,1-6.581,0l-.327-.043q-1.485-.18-2.95-.506l-.359-.077a29.968,29.968,0,0,1-6.24-2.218c-.045-.021-.1-.037-.141-.059v12.1l13.31,6.655,13.31-6.655v-12.1c-.045.024-.1.037-.141.059A30.177,30.177,0,0,1,128.251,232.956Z" transform="translate(-69.404 -154.004)"/><path class="a" d="M108,290.252l6.37-2.122L108,284.944Z" transform="translate(-69.393 -190.212)"/><path class="a" d="M79.438,35.194c1.464-.471,2.944-.9,4.43-1.315.242-.067.479-.146.721-.21q2.56-.691,5.162-1.275l1.605-.357a2.657,2.657,0,0,1,3.237,2.6,13.326,13.326,0,0,0,13.31,13.31h7.986a31.945,31.945,0,1,0-63.89,0v.285A114.247,114.247,0,0,1,79.14,35.292C79.241,35.263,79.337,35.226,79.438,35.194Z" transform="translate(-32.027 -10.762)"/><g transform="translate(9.324 94.732)"><path class="a" d="M175.226,290.252v-5.308l-6.37,3.186Z" transform="translate(-119.323 -284.944)"/><path class="a" d="M142.822,345.293l-5.151-18.885-5.151,18.885,5.151,10.3Z" transform="translate(-95.078 -312.61)"/><path class="a" d="M20,350.169H43.959V293.4s-16.194-4.955-22.184,9.238S20,350.169,20,350.169Z" transform="translate(-20 -290.586)"/></g></g></svg>