<svg xmlns="http://www.w3.org/2000/svg" width="196.481" height="143.688" viewBox="0 0 196.481 143.688"><defs><style>.a,.b{fill:#012656;stroke:#305bc9;}.a{stroke-width:2px;}</style></defs><g transform="translate(-23 -68.013)"><path class="a" d="M54.706,352h6.706a6.706,6.706,0,0,1,6.706,6.706v6.706H48v-6.706A6.706,6.706,0,0,1,54.706,352Z" transform="translate(-13.941 -168.125)"/><path class="a" d="M24,384H218.481v13.413H24Z" transform="translate(0 -186.712)"/><path class="a" d="M416,320h20.119v13.413a6.706,6.706,0,0,1-6.706,6.706h-6.706A6.706,6.706,0,0,1,416,333.412Z" transform="translate(-226.65 -143.258)"/><circle class="a" cx="20" cy="20" r="20" transform="translate(101.918 69.2)"/><path class="a" d="M181.413,176h46.944a13.412,13.412,0,0,1,13.413,13.412v13.413H168V189.412A13.413,13.413,0,0,1,181.413,176Z" transform="translate(-83.644 -65.894)"/><path class="a" d="M101.25,67H6.75L0,0H108l-6.75,67ZM54,23.45A10.05,10.05,0,1,0,64.125,33.5,10.1,10.1,0,0,0,54,23.45Z" transform="translate(67.918 130.2)"/><path class="a" d="M411.52,257.722h5.063c0-.415.066-.528.712-1.2a6.279,6.279,0,0,0,0-9.414c-.646-.673-.712-.785-.712-1.2s.066-.528.712-1.2A6.311,6.311,0,0,0,419.419,240h-5.063c0,.415-.066.527-.712,1.2a6.279,6.279,0,0,0,0,9.414c.646.673.712.785.712,1.2s-.066.528-.712,1.2A6.313,6.313,0,0,0,411.52,257.722Z" transform="translate(-221.124 -81.356)"/><path class="a" d="M443.52,257.722h5.063c0-.415.066-.528.712-1.2a6.279,6.279,0,0,0,0-9.414c-.646-.673-.712-.785-.712-1.2s.066-.528.712-1.2A6.311,6.311,0,0,0,451.419,240h-5.063c0,.415-.066.527-.712,1.2a6.279,6.279,0,0,0,0,9.414c.646.673.712.785.712,1.2s-.066.528-.712,1.2A6.313,6.313,0,0,0,443.52,257.722Z" transform="translate(-242.997 -81.356)"/><path class="b" d="M68.423,27.488c.876-.282,1.762-.54,2.651-.787.145-.04.287-.088.432-.126q1.532-.413,3.089-.763l.961-.214a1.59,1.59,0,0,1,1.937,1.555A7.976,7.976,0,0,0,85.46,35.12h4.78a19.12,19.12,0,1,0-38.24,0v.17a68.38,68.38,0,0,1,16.244-7.744C68.3,27.529,68.362,27.507,68.423,27.488Z" transform="translate(51.202 52.513)"/></g></svg>