<svg xmlns="http://www.w3.org/2000/svg" width="99.059" height="227.833" viewBox="0 0 99.059 227.833"><defs><style>.a{opacity:0.7;}.b{fill:#305bc9;fill-rule:evenodd;}.c{fill:#fff;stroke:#fff;stroke-width:2px;}</style></defs><g class="a" transform="translate(99.059 1) rotate(90)"><path class="b" d="M99.829,0H-52V74.429H99.829Z" transform="translate(125.155)"/><path class="c" d="M232.213,43.035c-4.965,0-7.389-2.971-9.814-5.8-2.309-2.83-4.5-5.519-9.006-5.519s-6.7,2.689-9.006,5.519c-2.425,2.83-4.849,5.8-9.814,5.8s-7.389-2.971-9.814-5.8c-2.309-2.83-4.5-5.519-9.006-5.519s-6.7,2.689-9.006,5.519c-2.425,2.83-4.849,5.8-9.814,5.8s-7.389-2.971-9.814-5.8c-2.31-2.83-4.5-5.519-9.006-5.519s-6.7,2.689-9.005,5.519c-2.425,2.83-4.849,5.8-9.814,5.8s-7.389-2.971-9.814-5.8c-2.309-2.83-4.5-5.519-9.005-5.519s-6.7,2.689-9.005,5.519c-2.425,2.83-4.849,5.8-9.814,5.8s-7.389-2.971-9.814-5.8c-2.309-2.83-4.5-5.519-9.005-5.519s-6.7,2.689-9.005,5.519c-2.425,2.83-4.849,5.8-9.814,5.8s-7.389-2.971-9.814-5.8C31.9,34.4,29.7,31.715,25.2,31.715V30.3c4.965,0,7.389,2.971,9.814,5.8,2.308,2.83,4.5,5.518,9.005,5.518s6.7-2.688,9.005-5.518c2.425-2.83,4.849-5.8,9.814-5.8s7.389,2.971,9.814,5.8c2.308,2.83,4.5,5.518,9.005,5.518s6.7-2.688,9.005-5.518c2.425-2.83,4.849-5.8,9.814-5.8s7.389,2.971,9.814,5.8c2.308,2.83,4.5,5.518,9.005,5.518s6.7-2.688,9.005-5.518c2.425-2.83,4.849-5.8,9.814-5.8s7.389,2.971,9.814,5.8c2.309,2.83,4.5,5.518,9.006,5.518s6.7-2.688,9.006-5.518c2.425-2.83,4.849-5.8,9.814-5.8s7.389,2.971,9.814,5.8c2.309,2.83,4.5,5.518,9.006,5.518s6.7-2.688,9.006-5.518c2.425-2.83,4.849-5.8,9.814-5.8s7.389,2.971,9.814,5.8c2.309,2.83,4.5,5.518,9.006,5.518s6.7-2.688,9.006-5.518c2.425-2.83,4.849-5.8,9.814-5.8v1.415c-4.5,0-6.7,2.689-9.006,5.519C239.6,40.064,237.178,43.035,232.213,43.035Z" transform="translate(-25.2 12.574)"/><path class="c" d="M232.213,53.035c-4.965,0-7.389-2.971-9.814-5.8-2.309-2.83-4.5-5.519-9.006-5.519s-6.7,2.689-9.006,5.519c-2.425,2.83-4.849,5.8-9.814,5.8s-7.389-2.971-9.814-5.8c-2.309-2.83-4.5-5.519-9.006-5.519s-6.7,2.689-9.006,5.519c-2.425,2.83-4.849,5.8-9.814,5.8s-7.389-2.971-9.814-5.8c-2.31-2.83-4.5-5.519-9.006-5.519s-6.7,2.689-9.005,5.519c-2.425,2.83-4.849,5.8-9.814,5.8s-7.389-2.971-9.814-5.8c-2.309-2.83-4.5-5.519-9.005-5.519s-6.7,2.689-9.005,5.519c-2.425,2.83-4.849,5.8-9.814,5.8s-7.389-2.971-9.814-5.8c-2.309-2.83-4.5-5.519-9.005-5.519s-6.7,2.689-9.005,5.519c-2.425,2.83-4.849,5.8-9.814,5.8s-7.389-2.971-9.814-5.8C31.9,44.4,29.7,41.715,25.2,41.715V40.3c4.965,0,7.389,2.972,9.814,5.8,2.308,2.83,4.5,5.518,9.005,5.518s6.7-2.688,9.005-5.518c2.425-2.83,4.849-5.8,9.814-5.8s7.389,2.972,9.814,5.8c2.308,2.83,4.5,5.518,9.005,5.518s6.7-2.688,9.005-5.518c2.425-2.83,4.849-5.8,9.814-5.8s7.389,2.972,9.814,5.8c2.308,2.83,4.5,5.518,9.005,5.518s6.7-2.688,9.005-5.518c2.425-2.83,4.849-5.8,9.814-5.8s7.389,2.972,9.814,5.8c2.309,2.83,4.5,5.518,9.006,5.518s6.7-2.688,9.006-5.518c2.425-2.83,4.849-5.8,9.814-5.8s7.389,2.972,9.814,5.8c2.309,2.83,4.5,5.518,9.006,5.518s6.7-2.688,9.006-5.518c2.425-2.83,4.849-5.8,9.814-5.8s7.389,2.972,9.814,5.8c2.309,2.83,4.5,5.518,9.006,5.518s6.7-2.688,9.006-5.518c2.425-2.83,4.849-5.8,9.814-5.8v1.415c-4.5,0-6.7,2.689-9.006,5.519C239.6,50.064,237.178,53.035,232.213,53.035Z" transform="translate(-25.2 16.724)"/><path class="c" d="M232.213,63.035c-4.965,0-7.389-2.971-9.814-5.8-2.309-2.83-4.5-5.519-9.006-5.519s-6.7,2.689-9.006,5.519c-2.425,2.83-4.849,5.8-9.814,5.8s-7.389-2.971-9.814-5.8c-2.309-2.83-4.5-5.519-9.006-5.519s-6.7,2.689-9.006,5.519c-2.425,2.83-4.849,5.8-9.814,5.8s-7.389-2.971-9.814-5.8c-2.31-2.83-4.5-5.519-9.006-5.519s-6.7,2.689-9.005,5.519c-2.425,2.83-4.849,5.8-9.814,5.8s-7.389-2.971-9.814-5.8c-2.309-2.83-4.5-5.519-9.005-5.519s-6.7,2.689-9.005,5.519c-2.425,2.83-4.849,5.8-9.814,5.8s-7.389-2.971-9.814-5.8c-2.309-2.83-4.5-5.519-9.005-5.519s-6.7,2.689-9.005,5.519c-2.425,2.83-4.849,5.8-9.814,5.8s-7.389-2.971-9.814-5.8C31.9,54.4,29.7,51.715,25.2,51.715V50.3c4.965,0,7.389,2.972,9.814,5.8,2.308,2.83,4.5,5.518,9.005,5.518s6.7-2.688,9.005-5.518c2.425-2.83,4.849-5.8,9.814-5.8s7.389,2.972,9.814,5.8c2.308,2.83,4.5,5.518,9.005,5.518s6.7-2.688,9.005-5.518c2.425-2.83,4.849-5.8,9.814-5.8s7.389,2.972,9.814,5.8c2.308,2.83,4.5,5.518,9.005,5.518s6.7-2.688,9.005-5.518c2.425-2.83,4.849-5.8,9.814-5.8s7.389,2.972,9.814,5.8c2.309,2.83,4.5,5.518,9.006,5.518s6.7-2.688,9.006-5.518c2.425-2.83,4.849-5.8,9.814-5.8s7.389,2.972,9.814,5.8c2.309,2.83,4.5,5.518,9.006,5.518s6.7-2.688,9.006-5.518c2.425-2.83,4.849-5.8,9.814-5.8s7.389,2.972,9.814,5.8c2.309,2.83,4.5,5.518,9.006,5.518s6.7-2.688,9.006-5.518c2.425-2.83,4.849-5.8,9.814-5.8v1.415c-4.5,0-6.7,2.689-9.006,5.519C239.6,60.064,237.178,63.035,232.213,63.035Z" transform="translate(-25.2 20.874)"/><path class="c" d="M232.213,73.035c-4.965,0-7.389-2.971-9.814-5.8-2.309-2.83-4.5-5.519-9.006-5.519s-6.7,2.689-9.006,5.519c-2.425,2.83-4.849,5.8-9.814,5.8s-7.389-2.971-9.814-5.8c-2.309-2.83-4.5-5.519-9.006-5.519s-6.7,2.689-9.006,5.519c-2.425,2.83-4.849,5.8-9.814,5.8s-7.389-2.971-9.814-5.8c-2.31-2.83-4.5-5.519-9.006-5.519s-6.7,2.689-9.005,5.519c-2.425,2.83-4.849,5.8-9.814,5.8s-7.389-2.971-9.814-5.8c-2.309-2.83-4.5-5.519-9.005-5.519s-6.7,2.689-9.005,5.519c-2.425,2.83-4.849,5.8-9.814,5.8s-7.389-2.971-9.814-5.8c-2.309-2.83-4.5-5.519-9.005-5.519s-6.7,2.689-9.005,5.519c-2.425,2.83-4.849,5.8-9.814,5.8s-7.389-2.971-9.814-5.8C31.9,64.4,29.7,61.715,25.2,61.715V60.3c4.965,0,7.389,2.972,9.814,5.8,2.308,2.83,4.5,5.518,9.005,5.518s6.7-2.688,9.005-5.518c2.425-2.83,4.849-5.8,9.814-5.8s7.389,2.972,9.814,5.8c2.308,2.83,4.5,5.518,9.005,5.518s6.7-2.688,9.005-5.518c2.425-2.83,4.849-5.8,9.814-5.8s7.389,2.972,9.814,5.8c2.308,2.83,4.5,5.518,9.005,5.518s6.7-2.688,9.005-5.518c2.425-2.83,4.849-5.8,9.814-5.8s7.389,2.972,9.814,5.8c2.309,2.83,4.5,5.518,9.006,5.518s6.7-2.688,9.006-5.518c2.425-2.83,4.849-5.8,9.814-5.8s7.389,2.972,9.814,5.8c2.309,2.83,4.5,5.518,9.006,5.518s6.7-2.688,9.006-5.518c2.425-2.83,4.849-5.8,9.814-5.8s7.389,2.972,9.814,5.8c2.309,2.83,4.5,5.518,9.006,5.518s6.7-2.688,9.006-5.518c2.425-2.83,4.849-5.8,9.814-5.8v1.415c-4.5,0-6.7,2.689-9.006,5.519C239.6,70.064,237.178,73.035,232.213,73.035Z" transform="translate(-25.2 25.024)"/></g></svg>