<svg xmlns="http://www.w3.org/2000/svg" width="593.034" height="602.683" viewBox="0 0 593.034 602.683"><defs><style>.a,.p{fill:#305bc9;}.b{fill:#1c1c1c;}.c{fill:#333335;}.d{fill:#ebebeb;}.e{fill:#daeaf7;}.f{fill:#1b3a5b;}.g{fill:#012656;}.h{fill:#e4e4e4;}.i{fill:#3070a5;}.j{fill:#484851;}.k{fill:#cdcdd1;font-size:5px;font-family:Consolas;}.l{fill:#fff;}.m{fill:#333;}.n{fill:#011854;}.o{fill:#ffbd72;}.o,.p{stroke:#012656;stroke-width:2px;}.q{fill:#072351;}.r{fill:#0a2b5b;}.s{fill:#163666;}</style></defs><g transform="translate(-1123 -1368)"><circle class="a" cx="262.5" cy="262.5" r="262.5" transform="translate(1157 1368)"/><g transform="translate(1123 1407)"><g transform="translate(0 0)"><g transform="translate(14.695 100.504)"><rect class="b" width="167.401" height="126.509" rx="1.03" transform="translate(0 0.269)"/><rect class="b" width="167.401" height="126.509" rx="1.01" transform="translate(189.125 0.269)"/><rect class="b" width="167.401" height="126.509" rx="1.01" transform="translate(381.012 0) rotate(0.2)"/><rect class="c" width="157.178" height="117.564" transform="translate(5.111 5.381)"/><rect class="d" width="157.178" height="117.564" transform="translate(194.236 5.381)"/><rect class="e" width="155.9" height="117.564" transform="translate(387.194 5.381)"/><rect class="b" width="23.002" height="35.78" transform="translate(63.893 126.778)"/><path class="f" d="M75.5,179.86l3.834,2.8v26.592H75.5Z" transform="translate(6.284 -50.526)"/><rect class="g" width="23.002" height="35.78" transform="translate(260.685 126.778)"/><path class="f" d="M229.5,179.86l3.834,2.8v26.592H229.5Z" transform="translate(49.076 -50.526)"/><rect class="b" width="23.002" height="35.78" transform="translate(461.311 126.778)"/><path class="f" d="M377.334,179.86l-3.834,2.8v26.592h3.834Z" transform="translate(89.089 -50.526)"/><path class="b" d="M113.783,212.671H43.5l2.3-6.811h65.683Z" transform="translate(-2.608 -43.301)"/><path class="g" d="M272.45,212.671H194.5l2.556-6.811h72.839Z" transform="translate(39.35 -43.301)"/><path class="b" d="M428.45,212.671H350.5l2.556-6.811h72.839Z" transform="translate(82.698 -43.301)"/><path class="h" d="M0,0H157.178V7.667H0Z" transform="translate(5.111 5.381)"/><circle class="i" cx="1.917" cy="1.917" r="1.917" transform="translate(7.667 6.659)"/><circle class="g" cx="1.917" cy="1.917" r="1.917" transform="translate(14.057 6.659)"/><circle class="a" cx="1.917" cy="1.917" r="1.917" transform="translate(20.446 6.659)"/><path class="h" d="M0,0H157.178V7.667H0Z" transform="translate(194.236 5.381)"/><circle class="i" cx="1.917" cy="1.917" r="1.917" transform="translate(196.792 6.659)"/><circle class="g" cx="1.917" cy="1.917" r="1.917" transform="translate(203.181 6.659)"/><circle class="a" cx="1.917" cy="1.917" r="1.917" transform="translate(209.571 6.659)"/><rect class="h" width="155.9" height="7.667" transform="translate(387.194 5.381)"/><circle class="i" cx="1.917" cy="1.917" r="1.917" transform="translate(389.75 6.659)"/><circle class="g" cx="1.917" cy="1.917" r="1.917" transform="translate(396.139 6.659)"/><circle class="a" cx="1.917" cy="1.917" r="1.917" transform="translate(402.529 6.659)"/><rect class="j" width="6.389" height="109.897" transform="translate(5.111 13.048)"/><text class="k" transform="translate(6.561 22.881)"><tspan x="0" y="0">1</tspan></text><text class="k" transform="translate(6.561 39.104)"><tspan x="0" y="0">2</tspan></text><text class="k" transform="translate(6.561 58.605)"><tspan x="0" y="0">3</tspan></text><text class="k" transform="translate(6.561 75.828)"><tspan x="0" y="0">4</tspan></text><text class="k" transform="translate(6.561 94.051)"><tspan x="0" y="0">5</tspan></text><rect class="l" width="29.391" height="109.897" transform="translate(387.194 13.048)"/><rect class="l" width="38.336" height="109.897" transform="translate(504.758 13.048)"/><rect class="l" width="154.622" height="11.6" transform="translate(387.194 13.048)"/><rect class="d" width="88.173" height="98.297" transform="translate(416.585 24.648)"/><rect class="a" width="14.057" height="14.057" rx="1.77" transform="translate(393.879 28.776)"/><line class="m" x2="29.391" transform="translate(387.194 71.83)"/><rect class="l" width="28.113" height="21.724" rx="2.75" transform="translate(511.148 90.998)"/><rect class="l" width="30.669" height="3.834" rx="1.25" transform="translate(509.87 29.66)"/><rect class="l" width="30.669" height="3.834" rx="1.25" transform="translate(509.87 34.772)"/><rect class="l" width="30.669" height="3.834" rx="1.25" transform="translate(509.87 39.883)"/><rect class="g" width="74.807" height="75.394" transform="translate(424.305 36.05)"/></g><g transform="translate(0 269.452)"><path class="n" d="M0,486.906H8.945L30.03,226.86H14.7Z" transform="translate(0 -206.414)"/><path class="n" d="M469.112,490.113l-10.146-.447-13-260.225,16.983.677Z" transform="translate(123.921 -205.697)"/><path class="n" d="M583.986,235.14,11.5,231.306l1.278-20.446H585.263Z" transform="translate(3.195 -210.86)"/></g><g transform="translate(161.494)"><path class="o" d="M195.617,37.614c-1.482,1.636-5.495,6.032-5.111,11.5.332,4.715,3.706,7.335,7.667,11.5,1.559,1.648,17.366,18.67,19.168,38.336a42.5,42.5,0,0,1,0,7.667l34.5,1.278c.69-2.313,1.661-5.84,2.556-10.223,3.31-16.306.626-20.778,5.111-26.835,1.827-2.466,1.891-1.188,11.5-10.223,4.409-4.14,5.648-5.572,6.389-7.667,2.121-5.968-1.559-12.319-2.556-14.057C263.983,20.12,210.837,20.912,195.617,37.614Z" transform="translate(-108.566 6.933)"/><path class="g" d="M215.079,103.329c-14.938-23.513-19.1-44.138-20.446-56.226-1.981-17.826,1.278-25.251,3.834-29.391C206.2,5.2,220.382,1.942,224.024,1.1c14.734-3.374,26.529,1.917,30.669,3.834,4.575,2.134,10.875,5.111,15.334,11.5,5.111,7.348,5.7,16.255,3.834,29.391-1.763,12.446-6.389,33.352-20.446,58.782Z" transform="translate(-107.582 0)"/><path class="g" d="M207.512,12.288c10.159-9.3,26.682-6.389,34.5-5.111,8.7,1.508,19.168,3.31,24.279,11.5,7.514,12.05-.92,30.835-11.5,40.892C245.924,68,229.018,76.552,215.179,69.792,195.73,60.3,192.88,25.68,207.512,12.288Z" transform="translate(-106.404 1.59)"/><g transform="translate(0 108.44)"><path class="p" d="M252.8,88.652a84.6,84.6,0,0,1-24.034-3.792v6.389l-42.17,8.945L130.368,201.146c-6.147,12.651-5.111,26.771,2.556,35.78,10.223,11.986,28.228,10.223,38.336,6.389,20.1-7.667,20.638-28.113,33.225-38.336,36.918-29.889,119.7,26.158,127.787,38.336a12.664,12.664,0,0,0,3.834,3.834c6.671,4.243,16.855,1.278,23-2.556,11.322-7.169,13.584-20.727,14.057-25.557.613-6.249-.46-11.667-6.389-26.835-7.923-20.28-15.335-34.5-15.335-34.5-16.612-31.947-25.161-48.1-33.225-53.671-6.2-4.268-18.184-10.568-38.336-10.223V84.86S265.576,88.652,252.8,88.652Z" transform="translate(-126.378 -84.86)"/></g><g transform="translate(12.935 331.72)"><path class="b" d="M177.392,262.491c-5.048.741-15.053,2.4-21.724,10.223-7.271,8.549-6.9,20.139-6.389,26.835,1.827,23.743,13.3,87.138,31.947,171.234-4.818-.575-19.6-1.687-33.225,7.667a45.21,45.21,0,0,0-11.5,11.5h60.06l-11.5-180.18,134.176-3.834q-5.111,90.729-10.223,181.457l61.338,2.556A42.694,42.694,0,0,0,356.294,475.9c-13.878-8.421-28.2-5.891-31.947-5.111A615.828,615.828,0,0,0,353.738,331.5c1.776-19.283,2.556-37.646,2.556-54.948a27.956,27.956,0,0,0-3.834-6.389c-12.779-15.986-37.327-9.15-76.672-8.945C244.761,261.392,212.29,257.38,177.392,262.491Z" transform="translate(-136.5 -259.588)"/></g></g><g transform="translate(161.646 152.319)"><path class="q" d="M175.118,136.018c10.1-11.731,25.187-13.085,54.948-15.334,30-2.249,47.281-3.412,62.616,7.667,11.935,8.626,17.673,20.586,20.446,28.113,12.779,34.9,16.267,63.587,15.334,122.675-.345,21.941-1.278,27.883-5.75,33.864-3.182,4.319-13.341,15.692-73.477,15.973-42.055.2-63,.23-74.116-10.223-11.411-10.708-12.293-33.979-14.057-80.506-1-26.2.716-40.023,3.834-65.171C168.154,146.752,171.016,140.8,175.118,136.018Z" transform="matrix(0.999, 0.035, -0.035, 0.999, -109, -127.6)"/><g transform="matrix(0.996, 0.087, -0.087, 0.996, 63.748, 4.558)"><path class="g" d="M180.262,141.388c6.21-5.674,21.187-7.667,51.115-11.5,34.911-4.524,42.234-1.9,47.281,1.278,9.277,5.853,12.779,14.721,19.168,31.947,5.508,14.759,4.69,18.056,12.779,60.06a411.184,411.184,0,0,1,5.75,56.865c.23,6.389.243,10.9-2.556,15.334-5.329,8.434-15.769,8.6-48.559,11.5-26.554,2.364-36.24,3.719-53.671,2.556-18.529-1.278-26.656-4.025-31.947-10.223s-5.955-13.954-6.313-18.734c-1.342-17.456-2.747-40.892-3.271-68.8C169.055,159.994,172.058,148.876,180.262,141.388Z" transform="translate(-169.859 -127.463)"/></g><g transform="translate(25.32 225.727)"><path class="r" d="M147.945,298.4l219.794-2.556A15.871,15.871,0,0,1,374,307.417a15.1,15.1,0,0,1-2.658,8.945L159.178,321.6a17.047,17.047,0,0,1-11.4-9.086A16.855,16.855,0,0,1,147.945,298.4Z" transform="translate(-146.311 -295.84)"/></g><g transform="translate(63.892 150.568)"><path class="q" d="M231.45,271.317a18.861,18.861,0,0,1-8.945-17.89,18.478,18.478,0,0,1,11.5-15.334,18.989,18.989,0,0,1,23,8.945c4.536,8.664,1.393,20.075-7.667,25.557l2.556,67.727,1.278,20.446,7.667,115.008a250,250,0,0,1,37.058,6.389c13.788,3.476,21.826,5.495,21.724,7.667-.23,5.022-43.358,7.437-71.561,7.667-21.174.179-70.973,1.687-71.561-3.834-.256-2.364,8.485-6.7,51.115-15.334Z" transform="translate(-176.496 -237.025)"/><circle class="s" cx="7.667" cy="7.667" r="7.667" transform="translate(54.954 11.291)"/><path class="s" d="M206.834,433.423c-10.223,1.406-15.334,2.1-15.334,2.556,0,2.4,64.673,5.533,65.171,1.278.217-1.891-12.357-5.84-24.28-6.389C227.28,430.637,220.457,431.57,206.834,433.423Z" transform="translate(-172.327 -183.171)"/></g><path class="r" d="M126.5,234.86l37.058,1.278A19.04,19.04,0,0,1,126.5,234.86Z" transform="translate(-126.496 -87.058)"/><path class="r" d="M310.37,235.18l37.058.473a19.04,19.04,0,0,1-37.058-.473Z" transform="translate(-75.404 -86.969)"/><path class="r" d="M140.558,246.86c-11.833,26.835-13.942,49.083-14.057,62.616-.128,16.255,2.556,23.155,6.389,28.113,3.552,4.6,9.8,9.712,34.5,14.057,0,0,24.113,4.243,71.561,3.834h5.111v-7.667a333.585,333.585,0,0,1-62.616-1.278,331.35,331.35,0,0,1-37.058-6.389,15.922,15.922,0,0,1-5.112-6.389c-2.364-5.571-.473-11.232,0-12.779,2.556-8.357,5.111-33.608,7.667-74.116Z" transform="translate(-126.497 -83.723)"/><path class="r" d="M353.064,245.86c11.59,27.755,13.878,50.693,14.057,65.171s-1.725,22.082-6.389,28.113c-3.553,4.6-9.8,9.712-34.5,14.057h0c-30.592,3.834-44.93,3.195-71.561,3.834-4.089.1-10.287.192-17.89,0-.422-2.977-.856-5.955-1.278-8.945a336.084,336.084,0,0,0,76.672,0A331.651,331.651,0,0,0,349.23,341.7a15.924,15.924,0,0,0,5.111-6.389c2.364-5.584.46-11.245,0-12.779-2.556-8.383-5.111-34.158-7.667-75.394Z" transform="translate(-96.208 -84.001)"/></g></g></g></g></svg>