<svg xmlns="http://www.w3.org/2000/svg" width="199.807" height="179.098" viewBox="0 0 199.807 179.098"><defs><style>.a{opacity:0.7;}.b{fill:#305bc9;}.c{fill:#fff;}</style></defs><g class="a" transform="translate(205.807 231.098) rotate(180)"><circle class="b" cx="73.589" cy="73.589" r="73.589" transform="translate(6 52)"/><path class="c" d="M59.473,88a2.507,2.507,0,0,0-2.422,2.422,2.422,2.422,0,1,0,4.843,0A2.341,2.341,0,0,0,59.473,88Z" transform="translate(28.046 43.429)"/><path class="c" d="M68.057,88a2.422,2.422,0,1,0,2.422,2.422A2.42,2.42,0,0,0,68.057,88Z" transform="translate(30.041 43.429)"/><path class="c" d="M76.641,88a2.422,2.422,0,1,0,2.422,2.422A2.507,2.507,0,0,0,76.641,88Z" transform="translate(32.036 43.429)"/><path class="c" d="M85.122,88a2.422,2.422,0,1,0,2.422,2.422A2.341,2.341,0,0,0,85.122,88Z" transform="translate(34.006 43.429)"/><path class="c" d="M93.706,88a2.422,2.422,0,1,0,2.422,2.422A2.42,2.42,0,0,0,93.706,88Z" transform="translate(36.001 43.429)"/><path class="c" d="M102.29,88a2.422,2.422,0,1,0,2.422,2.422A2.507,2.507,0,0,0,102.29,88Z" transform="translate(37.996 43.429)"/><path class="c" d="M110.771,88a2.422,2.422,0,1,0,2.422,2.422A2.42,2.42,0,0,0,110.771,88Z" transform="translate(39.966 43.429)"/><path class="c" d="M119.355,88a2.422,2.422,0,1,0,2.422,2.422A2.42,2.42,0,0,0,119.355,88Z" transform="translate(41.961 43.429)"/><path class="c" d="M127.939,88a2.422,2.422,0,1,0,2.422,2.422A2.507,2.507,0,0,0,127.939,88Z" transform="translate(43.956 43.429)"/><path class="c" d="M136.419,88a2.422,2.422,0,1,0,2.422,2.422A2.42,2.42,0,0,0,136.419,88Z" transform="translate(45.926 43.429)"/><path class="c" d="M145,88a2.422,2.422,0,1,0,2.422,2.422A2.506,2.506,0,0,0,145,88Z" transform="translate(47.921 43.429)"/><path class="c" d="M153.484,92.947a2.422,2.422,0,1,0-2.422-2.422A2.507,2.507,0,0,0,153.484,92.947Z" transform="translate(49.892 43.453)"/><path class="c" d="M59.473,96.584a2.422,2.422,0,1,0,2.422,2.422A2.274,2.274,0,0,0,59.473,96.584Z" transform="translate(28.046 45.424)"/><path class="c" d="M68.057,96.584a2.422,2.422,0,1,0,2.422,2.422A2.344,2.344,0,0,0,68.057,96.584Z" transform="translate(30.041 45.424)"/><path class="c" d="M76.641,96.584a2.422,2.422,0,1,0,2.422,2.422A2.42,2.42,0,0,0,76.641,96.584Z" transform="translate(32.036 45.424)"/><path class="c" d="M85.122,96.584a2.422,2.422,0,1,0,2.422,2.422A2.274,2.274,0,0,0,85.122,96.584Z" transform="translate(34.006 45.424)"/><path class="c" d="M93.706,96.584a2.422,2.422,0,1,0,2.422,2.422A2.344,2.344,0,0,0,93.706,96.584Z" transform="translate(36.001 45.424)"/><path class="c" d="M102.29,96.584a2.422,2.422,0,1,0,2.422,2.422A2.42,2.42,0,0,0,102.29,96.584Z" transform="translate(37.996 45.424)"/><path class="c" d="M110.771,96.584a2.422,2.422,0,1,0,2.422,2.422A2.344,2.344,0,0,0,110.771,96.584Z" transform="translate(39.966 45.424)"/><path class="c" d="M119.355,96.584a2.422,2.422,0,1,0,2.422,2.422A2.343,2.343,0,0,0,119.355,96.584Z" transform="translate(41.961 45.424)"/><path class="c" d="M127.939,96.584a2.422,2.422,0,1,0,2.422,2.422A2.42,2.42,0,0,0,127.939,96.584Z" transform="translate(43.956 45.424)"/><path class="c" d="M136.419,96.584a2.422,2.422,0,1,0,2.422,2.422A2.343,2.343,0,0,0,136.419,96.584Z" transform="translate(45.926 45.424)"/><path class="c" d="M145,96.584a2.422,2.422,0,1,0,2.422,2.422A2.421,2.421,0,0,0,145,96.584Z" transform="translate(47.921 45.424)"/><path class="c" d="M153.484,96.584a2.422,2.422,0,1,0,2.422,2.422A2.274,2.274,0,0,0,153.484,96.584Z" transform="translate(49.892 45.424)"/><path class="c" d="M59.473,105.065a2.422,2.422,0,1,0,2.422,2.422A2.341,2.341,0,0,0,59.473,105.065Z" transform="translate(28.046 47.394)"/><path class="c" d="M68.057,105.065a2.422,2.422,0,1,0,2.422,2.422A2.419,2.419,0,0,0,68.057,105.065Z" transform="translate(30.041 47.394)"/><path class="c" d="M76.641,105.065a2.422,2.422,0,1,0,2.422,2.422A2.506,2.506,0,0,0,76.641,105.065Z" transform="translate(32.036 47.394)"/><path class="c" d="M85.122,105.065a2.422,2.422,0,1,0,2.422,2.422A2.341,2.341,0,0,0,85.122,105.065Z" transform="translate(34.006 47.394)"/><path class="c" d="M93.706,105.065a2.422,2.422,0,1,0,2.422,2.422A2.419,2.419,0,0,0,93.706,105.065Z" transform="translate(36.001 47.394)"/><path class="c" d="M102.29,105.065a2.422,2.422,0,1,0,2.422,2.422A2.506,2.506,0,0,0,102.29,105.065Z" transform="translate(37.996 47.394)"/><path class="c" d="M110.771,105.065a2.422,2.422,0,1,0,2.422,2.422A2.419,2.419,0,0,0,110.771,105.065Z" transform="translate(39.966 47.394)"/><path class="c" d="M119.355,105.065a2.422,2.422,0,1,0,2.422,2.422A2.419,2.419,0,0,0,119.355,105.065Z" transform="translate(41.961 47.394)"/><path class="c" d="M127.939,105.065a2.422,2.422,0,1,0,2.422,2.422A2.506,2.506,0,0,0,127.939,105.065Z" transform="translate(43.956 47.394)"/><path class="c" d="M136.419,105.065a2.422,2.422,0,1,0,2.422,2.422A2.42,2.42,0,0,0,136.419,105.065Z" transform="translate(45.926 47.394)"/><path class="c" d="M145,105.065a2.422,2.422,0,1,0,2.422,2.422A2.506,2.506,0,0,0,145,105.065Z" transform="translate(47.921 47.394)"/><path class="c" d="M153.484,105.065a2.422,2.422,0,1,0,2.422,2.422A2.341,2.341,0,0,0,153.484,105.065Z" transform="translate(49.892 47.394)"/><path class="c" d="M59.473,118.492a2.422,2.422,0,1,0-2.422-2.422A2.422,2.422,0,0,0,59.473,118.492Z" transform="translate(28.046 49.389)"/><path class="c" d="M68.057,113.649a2.422,2.422,0,1,0,2.422,2.422A2.419,2.419,0,0,0,68.057,113.649Z" transform="translate(30.041 49.389)"/><path class="c" d="M76.641,113.649a2.422,2.422,0,1,0,2.422,2.422A2.506,2.506,0,0,0,76.641,113.649Z" transform="translate(32.036 49.389)"/><path class="c" d="M85.122,113.649a2.422,2.422,0,1,0,2.422,2.422A2.341,2.341,0,0,0,85.122,113.649Z" transform="translate(34.006 49.389)"/><path class="c" d="M93.706,113.649a2.422,2.422,0,1,0,2.422,2.422A2.419,2.419,0,0,0,93.706,113.649Z" transform="translate(36.001 49.389)"/><path class="c" d="M102.29,113.649a2.422,2.422,0,1,0,2.422,2.422A2.506,2.506,0,0,0,102.29,113.649Z" transform="translate(37.996 49.389)"/><path class="c" d="M110.771,113.649a2.422,2.422,0,1,0,2.422,2.422A2.419,2.419,0,0,0,110.771,113.649Z" transform="translate(39.966 49.389)"/><path class="c" d="M119.355,113.649a2.422,2.422,0,1,0,2.422,2.422A2.419,2.419,0,0,0,119.355,113.649Z" transform="translate(41.961 49.389)"/><path class="c" d="M127.939,113.649a2.422,2.422,0,1,0,2.422,2.422A2.506,2.506,0,0,0,127.939,113.649Z" transform="translate(43.956 49.389)"/><path class="c" d="M136.419,113.649a2.422,2.422,0,1,0,2.422,2.422A2.42,2.42,0,0,0,136.419,113.649Z" transform="translate(45.926 49.389)"/><path class="c" d="M145,113.649a2.422,2.422,0,1,0,2.422,2.422A2.506,2.506,0,0,0,145,113.649Z" transform="translate(47.921 49.389)"/><path class="c" d="M153.484,113.649a2.422,2.422,0,1,0,2.422,2.422A2.341,2.341,0,0,0,153.484,113.649Z" transform="translate(49.892 49.389)"/><path class="c" d="M59.473,122.233a2.422,2.422,0,1,0,2.422,2.422A2.274,2.274,0,0,0,59.473,122.233Z" transform="translate(28.046 51.384)"/><path class="c" d="M68.057,122.233a2.422,2.422,0,1,0,2.422,2.422A2.343,2.343,0,0,0,68.057,122.233Z" transform="translate(30.041 51.384)"/><path class="c" d="M76.641,122.233a2.422,2.422,0,1,0,2.422,2.422A2.419,2.419,0,0,0,76.641,122.233Z" transform="translate(32.036 51.384)"/><path class="c" d="M85.122,122.233a2.422,2.422,0,1,0,2.422,2.422A2.274,2.274,0,0,0,85.122,122.233Z" transform="translate(34.006 51.384)"/><path class="c" d="M93.706,122.233a2.422,2.422,0,1,0,2.422,2.422A2.343,2.343,0,0,0,93.706,122.233Z" transform="translate(36.001 51.384)"/><path class="c" d="M102.29,122.233a2.422,2.422,0,1,0,2.422,2.422A2.42,2.42,0,0,0,102.29,122.233Z" transform="translate(37.996 51.384)"/><path class="c" d="M110.771,122.233a2.422,2.422,0,1,0,2.422,2.422A2.344,2.344,0,0,0,110.771,122.233Z" transform="translate(39.966 51.384)"/><path class="c" d="M119.355,122.233a2.422,2.422,0,1,0,2.422,2.422A2.343,2.343,0,0,0,119.355,122.233Z" transform="translate(41.961 51.384)"/><path class="c" d="M127.939,122.233a2.422,2.422,0,1,0,2.422,2.422A2.419,2.419,0,0,0,127.939,122.233Z" transform="translate(43.956 51.384)"/><path class="c" d="M136.419,122.233a2.422,2.422,0,1,0,2.422,2.422A2.343,2.343,0,0,0,136.419,122.233Z" transform="translate(45.926 51.384)"/><path class="c" d="M145,122.233a2.422,2.422,0,1,0,2.422,2.422A2.42,2.42,0,0,0,145,122.233Z" transform="translate(47.921 51.384)"/><path class="c" d="M153.484,122.233a2.422,2.422,0,1,0,2.422,2.422A2.274,2.274,0,0,0,153.484,122.233Z" transform="translate(49.892 51.384)"/><path class="c" d="M59.473,130.713a2.534,2.534,0,0,0-2.422,2.55,2.507,2.507,0,0,0,2.422,2.422,2.42,2.42,0,0,0,2.422-2.422A2.376,2.376,0,0,0,59.473,130.713Z" transform="translate(28.046 53.354)"/><path class="c" d="M68.057,130.713a2.422,2.422,0,1,0,2.422,2.422A2.42,2.42,0,0,0,68.057,130.713Z" transform="translate(30.041 53.354)"/><path class="c" d="M76.641,130.713a2.422,2.422,0,1,0,2.422,2.422A2.507,2.507,0,0,0,76.641,130.713Z" transform="translate(32.036 53.354)"/><path class="c" d="M85.122,130.713a2.422,2.422,0,1,0,2.422,2.422A2.342,2.342,0,0,0,85.122,130.713Z" transform="translate(34.006 53.354)"/><path class="c" d="M93.706,130.713a2.422,2.422,0,1,0,2.422,2.422A2.42,2.42,0,0,0,93.706,130.713Z" transform="translate(36.001 53.354)"/><path class="c" d="M102.29,130.713a2.422,2.422,0,1,0,2.422,2.422A2.507,2.507,0,0,0,102.29,130.713Z" transform="translate(37.996 53.354)"/><path class="c" d="M110.771,130.713a2.422,2.422,0,1,0,2.422,2.422A2.42,2.42,0,0,0,110.771,130.713Z" transform="translate(39.966 53.354)"/><path class="c" d="M119.355,130.713a2.422,2.422,0,1,0,2.422,2.422A2.42,2.42,0,0,0,119.355,130.713Z" transform="translate(41.961 53.354)"/><path class="c" d="M127.939,130.713a2.422,2.422,0,1,0,2.422,2.422A2.507,2.507,0,0,0,127.939,130.713Z" transform="translate(43.956 53.354)"/><path class="c" d="M136.419,130.713a2.422,2.422,0,1,0,2.422,2.422A2.421,2.421,0,0,0,136.419,130.713Z" transform="translate(45.926 53.354)"/><path class="c" d="M145,130.713a2.422,2.422,0,1,0,2.422,2.422A2.506,2.506,0,0,0,145,130.713Z" transform="translate(47.921 53.354)"/><path class="c" d="M153.484,130.713a2.422,2.422,0,1,0,2.422,2.422A2.342,2.342,0,0,0,153.484,130.713Z" transform="translate(49.892 53.354)"/><path class="c" d="M59.473,139.3a2.42,2.42,0,0,0-2.422,2.422,2.507,2.507,0,0,0,2.422,2.422,2.422,2.422,0,0,0,0-4.843Z" transform="translate(28.046 55.349)"/><path class="c" d="M68.057,139.3a2.42,2.42,0,0,0-2.422,2.422,2.507,2.507,0,0,0,2.422,2.422,2.422,2.422,0,0,0,0-4.843Z" transform="translate(30.041 55.349)"/><path class="c" d="M76.641,139.3a2.42,2.42,0,0,0-2.422,2.422,2.507,2.507,0,0,0,2.422,2.422,2.42,2.42,0,0,0,2.422-2.422A2.507,2.507,0,0,0,76.641,139.3Z" transform="translate(32.036 55.349)"/><path class="c" d="M85.122,139.3a2.42,2.42,0,0,0-2.422,2.422,2.507,2.507,0,0,0,2.422,2.422,2.422,2.422,0,1,0,0-4.843Z" transform="translate(34.006 55.349)"/><path class="c" d="M93.706,139.3a2.42,2.42,0,0,0-2.422,2.422,2.507,2.507,0,0,0,2.422,2.422,2.422,2.422,0,0,0,0-4.843Z" transform="translate(36.001 55.349)"/><path class="c" d="M102.29,139.3a2.42,2.42,0,0,0-2.421,2.422,2.507,2.507,0,0,0,2.421,2.422,2.42,2.42,0,0,0,2.422-2.422A2.507,2.507,0,0,0,102.29,139.3Z" transform="translate(37.996 55.349)"/><path class="c" d="M110.771,139.3a2.42,2.42,0,0,0-2.422,2.422,2.506,2.506,0,0,0,2.422,2.422,2.422,2.422,0,1,0,0-4.843Z" transform="translate(39.966 55.349)"/><path class="c" d="M119.355,139.3a2.42,2.42,0,0,0-2.422,2.422,2.507,2.507,0,0,0,2.422,2.422,2.422,2.422,0,0,0,0-4.843Z" transform="translate(41.961 55.349)"/><path class="c" d="M127.939,139.3a2.42,2.42,0,0,0-2.422,2.422,2.507,2.507,0,0,0,2.422,2.422,2.42,2.42,0,0,0,2.422-2.422A2.507,2.507,0,0,0,127.939,139.3Z" transform="translate(43.956 55.349)"/><path class="c" d="M136.419,139.3A2.421,2.421,0,0,0,134,141.719a2.507,2.507,0,0,0,2.422,2.422,2.422,2.422,0,1,0,0-4.843Z" transform="translate(45.926 55.349)"/><path class="c" d="M145,139.3a2.421,2.421,0,0,0-2.422,2.422A2.507,2.507,0,0,0,145,144.14a2.42,2.42,0,0,0,2.422-2.422A2.506,2.506,0,0,0,145,139.3Z" transform="translate(47.921 55.349)"/><path class="c" d="M153.484,139.3a2.42,2.42,0,0,0-2.422,2.422,2.507,2.507,0,0,0,2.422,2.422,2.422,2.422,0,0,0,0-4.843Z" transform="translate(49.892 55.349)"/><path class="c" d="M59.473,147.881a2.422,2.422,0,1,0,2.422,2.422A2.275,2.275,0,0,0,59.473,147.881Z" transform="translate(28.046 57.344)"/><path class="c" d="M68.057,147.881a2.422,2.422,0,1,0,2.422,2.422A2.344,2.344,0,0,0,68.057,147.881Z" transform="translate(30.041 57.344)"/><path class="c" d="M76.641,147.881a2.422,2.422,0,1,0,2.422,2.422A2.42,2.42,0,0,0,76.641,147.881Z" transform="translate(32.036 57.344)"/><path class="c" d="M85.122,147.881a2.422,2.422,0,1,0,2.422,2.422A2.275,2.275,0,0,0,85.122,147.881Z" transform="translate(34.006 57.344)"/><path class="c" d="M93.706,147.881a2.422,2.422,0,1,0,2.422,2.422A2.344,2.344,0,0,0,93.706,147.881Z" transform="translate(36.001 57.344)"/><path class="c" d="M102.29,147.881a2.422,2.422,0,1,0,2.422,2.422A2.42,2.42,0,0,0,102.29,147.881Z" transform="translate(37.996 57.344)"/><path class="c" d="M110.771,147.881a2.422,2.422,0,1,0,2.422,2.422A2.344,2.344,0,0,0,110.771,147.881Z" transform="translate(39.966 57.344)"/><path class="c" d="M119.355,147.881a2.422,2.422,0,1,0,2.422,2.422A2.344,2.344,0,0,0,119.355,147.881Z" transform="translate(41.961 57.344)"/><path class="c" d="M127.939,147.881a2.422,2.422,0,1,0,2.422,2.422A2.42,2.42,0,0,0,127.939,147.881Z" transform="translate(43.956 57.344)"/><path class="c" d="M136.419,147.881a2.422,2.422,0,1,0,2.422,2.422A2.344,2.344,0,0,0,136.419,147.881Z" transform="translate(45.926 57.344)"/><path class="c" d="M145,147.881a2.422,2.422,0,1,0,2.422,2.422A2.421,2.421,0,0,0,145,147.881Z" transform="translate(47.921 57.344)"/><path class="c" d="M153.484,147.881a2.422,2.422,0,1,0,2.422,2.422A2.275,2.275,0,0,0,153.484,147.881Z" transform="translate(49.892 57.344)"/><path class="c" d="M59.473,156.362a2.422,2.422,0,1,0,2.422,2.422A2.342,2.342,0,0,0,59.473,156.362Z" transform="translate(28.046 59.314)"/><path class="c" d="M68.057,156.362a2.422,2.422,0,1,0,2.422,2.422A2.42,2.42,0,0,0,68.057,156.362Z" transform="translate(30.041 59.314)"/><path class="c" d="M76.641,156.362a2.422,2.422,0,1,0,2.422,2.422A2.507,2.507,0,0,0,76.641,156.362Z" transform="translate(32.036 59.314)"/><path class="c" d="M85.122,156.362a2.422,2.422,0,1,0,2.422,2.422A2.342,2.342,0,0,0,85.122,156.362Z" transform="translate(34.006 59.314)"/><path class="c" d="M93.706,156.362a2.422,2.422,0,1,0,2.422,2.422A2.42,2.42,0,0,0,93.706,156.362Z" transform="translate(36.001 59.314)"/><path class="c" d="M102.29,156.362a2.422,2.422,0,1,0,2.422,2.422A2.507,2.507,0,0,0,102.29,156.362Z" transform="translate(37.996 59.314)"/><path class="c" d="M110.771,156.362a2.422,2.422,0,1,0,2.422,2.422A2.42,2.42,0,0,0,110.771,156.362Z" transform="translate(39.966 59.314)"/><path class="c" d="M119.355,156.362a2.422,2.422,0,1,0,2.422,2.422A2.42,2.42,0,0,0,119.355,156.362Z" transform="translate(41.961 59.314)"/><path class="c" d="M127.939,156.362a2.422,2.422,0,1,0,2.422,2.422A2.507,2.507,0,0,0,127.939,156.362Z" transform="translate(43.956 59.314)"/><path class="c" d="M136.419,156.362a2.422,2.422,0,1,0,2.422,2.422A2.421,2.421,0,0,0,136.419,156.362Z" transform="translate(45.926 59.314)"/><path class="c" d="M145,156.362a2.422,2.422,0,1,0,2.422,2.422A2.506,2.506,0,0,0,145,156.362Z" transform="translate(47.921 59.314)"/><path class="c" d="M153.484,156.362a2.422,2.422,0,1,0,2.422,2.422A2.342,2.342,0,0,0,153.484,156.362Z" transform="translate(49.892 59.314)"/><path class="c" d="M59.473,164.946a2.422,2.422,0,1,0,2.422,2.422A2.341,2.341,0,0,0,59.473,164.946Z" transform="translate(28.046 61.309)"/><path class="c" d="M68.057,164.946a2.422,2.422,0,1,0,2.422,2.422A2.42,2.42,0,0,0,68.057,164.946Z" transform="translate(30.041 61.309)"/><path class="c" d="M76.641,164.946a2.422,2.422,0,1,0,2.422,2.422A2.507,2.507,0,0,0,76.641,164.946Z" transform="translate(32.036 61.309)"/><path class="c" d="M85.122,164.946a2.422,2.422,0,1,0,2.422,2.422A2.342,2.342,0,0,0,85.122,164.946Z" transform="translate(34.006 61.309)"/><path class="c" d="M93.706,164.946a2.422,2.422,0,1,0,2.422,2.422A2.42,2.42,0,0,0,93.706,164.946Z" transform="translate(36.001 61.309)"/><path class="c" d="M102.29,164.946a2.422,2.422,0,1,0,2.422,2.422A2.507,2.507,0,0,0,102.29,164.946Z" transform="translate(37.996 61.309)"/><path class="c" d="M110.771,164.946a2.422,2.422,0,1,0,2.422,2.422A2.42,2.42,0,0,0,110.771,164.946Z" transform="translate(39.966 61.309)"/><path class="c" d="M119.355,164.946a2.422,2.422,0,1,0,2.422,2.422A2.42,2.42,0,0,0,119.355,164.946Z" transform="translate(41.961 61.309)"/><path class="c" d="M127.939,164.946a2.422,2.422,0,1,0,2.422,2.422A2.507,2.507,0,0,0,127.939,164.946Z" transform="translate(43.956 61.309)"/><path class="c" d="M136.419,164.946a2.422,2.422,0,1,0,2.422,2.422A2.421,2.421,0,0,0,136.419,164.946Z" transform="translate(45.926 61.309)"/><path class="c" d="M145,164.946a2.422,2.422,0,1,0,2.422,2.422A2.506,2.506,0,0,0,145,164.946Z" transform="translate(47.921 61.309)"/><path class="c" d="M153.484,164.946a2.422,2.422,0,1,0,2.422,2.422A2.342,2.342,0,0,0,153.484,164.946Z" transform="translate(49.892 61.309)"/><path class="c" d="M59.473,88a2.507,2.507,0,0,0-2.422,2.422,2.422,2.422,0,1,0,4.843,0A2.341,2.341,0,0,0,59.473,88Z" transform="translate(28.046 43.429)"/><path class="c" d="M68.057,88a2.422,2.422,0,1,0,2.422,2.422A2.42,2.42,0,0,0,68.057,88Z" transform="translate(30.041 43.429)"/><path class="c" d="M76.641,88a2.422,2.422,0,1,0,2.422,2.422A2.507,2.507,0,0,0,76.641,88Z" transform="translate(32.036 43.429)"/><path class="c" d="M85.122,88a2.422,2.422,0,1,0,2.422,2.422A2.341,2.341,0,0,0,85.122,88Z" transform="translate(34.006 43.429)"/><path class="c" d="M93.706,88a2.422,2.422,0,1,0,2.422,2.422A2.42,2.42,0,0,0,93.706,88Z" transform="translate(36.001 43.429)"/><path class="c" d="M102.29,88a2.422,2.422,0,1,0,2.422,2.422A2.506,2.506,0,0,0,102.29,88Z" transform="translate(37.996 43.429)"/><path class="c" d="M110.771,88a2.422,2.422,0,1,0,2.422,2.422A2.42,2.42,0,0,0,110.771,88Z" transform="translate(39.966 43.429)"/><path class="c" d="M119.355,88a2.422,2.422,0,1,0,2.422,2.422A2.42,2.42,0,0,0,119.355,88Z" transform="translate(41.961 43.429)"/><path class="c" d="M127.939,88a2.422,2.422,0,1,0,2.422,2.422A2.507,2.507,0,0,0,127.939,88Z" transform="translate(43.956 43.429)"/><path class="c" d="M136.42,88a2.422,2.422,0,1,0,2.422,2.422A2.42,2.42,0,0,0,136.42,88Z" transform="translate(45.927 43.429)"/><path class="c" d="M145,88a2.422,2.422,0,1,0,2.422,2.422A2.507,2.507,0,0,0,145,88Z" transform="translate(47.921 43.429)"/><path class="c" d="M153.484,92.947a2.422,2.422,0,1,0-2.422-2.422A2.507,2.507,0,0,0,153.484,92.947Z" transform="translate(49.892 43.453)"/><path class="c" d="M59.473,96.584a2.422,2.422,0,1,0,2.422,2.422A2.274,2.274,0,0,0,59.473,96.584Z" transform="translate(28.046 45.424)"/><path class="c" d="M68.057,96.584a2.422,2.422,0,1,0,2.422,2.422A2.344,2.344,0,0,0,68.057,96.584Z" transform="translate(30.041 45.424)"/><path class="c" d="M76.641,96.584a2.422,2.422,0,1,0,2.422,2.422A2.42,2.42,0,0,0,76.641,96.584Z" transform="translate(32.036 45.424)"/><path class="c" d="M85.122,96.584a2.422,2.422,0,1,0,2.422,2.422A2.274,2.274,0,0,0,85.122,96.584Z" transform="translate(34.006 45.424)"/><path class="c" d="M93.706,96.584a2.422,2.422,0,1,0,2.422,2.422A2.344,2.344,0,0,0,93.706,96.584Z" transform="translate(36.001 45.424)"/><path class="c" d="M102.29,96.584a2.422,2.422,0,1,0,2.422,2.422A2.42,2.42,0,0,0,102.29,96.584Z" transform="translate(37.996 45.424)"/><path class="c" d="M110.771,96.584a2.422,2.422,0,1,0,2.422,2.422A2.343,2.343,0,0,0,110.771,96.584Z" transform="translate(39.966 45.424)"/><path class="c" d="M119.355,96.584a2.422,2.422,0,1,0,2.422,2.422A2.343,2.343,0,0,0,119.355,96.584Z" transform="translate(41.961 45.424)"/><path class="c" d="M127.939,96.584a2.422,2.422,0,1,0,2.422,2.422A2.42,2.42,0,0,0,127.939,96.584Z" transform="translate(43.956 45.424)"/><path class="c" d="M136.42,96.584a2.422,2.422,0,1,0,2.422,2.422A2.344,2.344,0,0,0,136.42,96.584Z" transform="translate(45.927 45.424)"/><path class="c" d="M145,96.584a2.422,2.422,0,1,0,2.422,2.422A2.42,2.42,0,0,0,145,96.584Z" transform="translate(47.921 45.424)"/><path class="c" d="M153.484,96.584a2.422,2.422,0,1,0,2.422,2.422A2.274,2.274,0,0,0,153.484,96.584Z" transform="translate(49.892 45.424)"/><path class="c" d="M59.473,105.065a2.422,2.422,0,1,0,2.422,2.422A2.341,2.341,0,0,0,59.473,105.065Z" transform="translate(28.046 47.394)"/><path class="c" d="M68.057,105.065a2.422,2.422,0,1,0,2.422,2.422A2.419,2.419,0,0,0,68.057,105.065Z" transform="translate(30.041 47.394)"/><path class="c" d="M76.641,105.065a2.422,2.422,0,1,0,2.422,2.422A2.506,2.506,0,0,0,76.641,105.065Z" transform="translate(32.036 47.394)"/><path class="c" d="M85.122,105.065a2.422,2.422,0,1,0,2.422,2.422A2.341,2.341,0,0,0,85.122,105.065Z" transform="translate(34.006 47.394)"/><path class="c" d="M93.706,105.065a2.422,2.422,0,1,0,2.422,2.422A2.419,2.419,0,0,0,93.706,105.065Z" transform="translate(36.001 47.394)"/><path class="c" d="M102.29,105.065a2.422,2.422,0,1,0,2.422,2.422A2.506,2.506,0,0,0,102.29,105.065Z" transform="translate(37.996 47.394)"/><path class="c" d="M110.771,105.065a2.422,2.422,0,1,0,2.422,2.422A2.419,2.419,0,0,0,110.771,105.065Z" transform="translate(39.966 47.394)"/><path class="c" d="M119.355,105.065a2.422,2.422,0,1,0,2.422,2.422A2.419,2.419,0,0,0,119.355,105.065Z" transform="translate(41.961 47.394)"/><path class="c" d="M127.939,105.065a2.422,2.422,0,1,0,2.422,2.422A2.506,2.506,0,0,0,127.939,105.065Z" transform="translate(43.956 47.394)"/><path class="c" d="M136.42,105.065a2.422,2.422,0,1,0,2.422,2.422A2.419,2.419,0,0,0,136.42,105.065Z" transform="translate(45.927 47.394)"/><path class="c" d="M145,105.065a2.422,2.422,0,1,0,2.422,2.422A2.506,2.506,0,0,0,145,105.065Z" transform="translate(47.921 47.394)"/><path class="c" d="M153.484,105.065a2.422,2.422,0,1,0,2.422,2.422A2.341,2.341,0,0,0,153.484,105.065Z" transform="translate(49.892 47.394)"/><path class="c" d="M59.536,118.493a2.422,2.422,0,1,0-2.484-2.358A2.421,2.421,0,0,0,59.536,118.493Z" transform="translate(28.046 49.389)"/><path class="c" d="M68.057,113.649a2.422,2.422,0,1,0,2.422,2.422A2.419,2.419,0,0,0,68.057,113.649Z" transform="translate(30.041 49.389)"/><path class="c" d="M76.641,113.649a2.422,2.422,0,1,0,2.422,2.422A2.506,2.506,0,0,0,76.641,113.649Z" transform="translate(32.036 49.389)"/><path class="c" d="M85.122,113.649a2.422,2.422,0,1,0,2.422,2.422A2.341,2.341,0,0,0,85.122,113.649Z" transform="translate(34.006 49.389)"/><path class="c" d="M93.706,113.649a2.422,2.422,0,1,0,2.422,2.422A2.419,2.419,0,0,0,93.706,113.649Z" transform="translate(36.001 49.389)"/><path class="c" d="M102.29,113.649a2.422,2.422,0,1,0,2.422,2.422A2.506,2.506,0,0,0,102.29,113.649Z" transform="translate(37.996 49.389)"/><path class="c" d="M110.771,113.649a2.422,2.422,0,1,0,2.422,2.422A2.419,2.419,0,0,0,110.771,113.649Z" transform="translate(39.966 49.389)"/><path class="c" d="M119.355,113.649a2.422,2.422,0,1,0,2.422,2.422A2.419,2.419,0,0,0,119.355,113.649Z" transform="translate(41.961 49.389)"/><path class="c" d="M127.939,113.649a2.422,2.422,0,1,0,2.422,2.422A2.506,2.506,0,0,0,127.939,113.649Z" transform="translate(43.956 49.389)"/><path class="c" d="M136.42,113.649a2.422,2.422,0,1,0,2.422,2.422A2.419,2.419,0,0,0,136.42,113.649Z" transform="translate(45.927 49.389)"/><path class="c" d="M145,113.649a2.422,2.422,0,1,0,2.422,2.422A2.506,2.506,0,0,0,145,113.649Z" transform="translate(47.921 49.389)"/><path class="c" d="M153.484,113.649a2.422,2.422,0,1,0,2.422,2.422A2.341,2.341,0,0,0,153.484,113.649Z" transform="translate(49.892 49.389)"/><path class="c" d="M59.473,122.233a2.422,2.422,0,1,0,2.422,2.422A2.274,2.274,0,0,0,59.473,122.233Z" transform="translate(28.046 51.384)"/><path class="c" d="M68.057,122.233a2.422,2.422,0,1,0,2.422,2.422A2.343,2.343,0,0,0,68.057,122.233Z" transform="translate(30.041 51.384)"/><path class="c" d="M76.641,122.233a2.422,2.422,0,1,0,2.422,2.422A2.419,2.419,0,0,0,76.641,122.233Z" transform="translate(32.036 51.384)"/><path class="c" d="M85.122,122.233a2.422,2.422,0,1,0,2.422,2.422A2.274,2.274,0,0,0,85.122,122.233Z" transform="translate(34.006 51.384)"/><path class="c" d="M93.706,122.233a2.422,2.422,0,1,0,2.422,2.422A2.343,2.343,0,0,0,93.706,122.233Z" transform="translate(36.001 51.384)"/><path class="c" d="M102.29,122.233a2.422,2.422,0,1,0,2.422,2.422A2.419,2.419,0,0,0,102.29,122.233Z" transform="translate(37.996 51.384)"/><path class="c" d="M110.771,122.233a2.422,2.422,0,1,0,2.422,2.422A2.343,2.343,0,0,0,110.771,122.233Z" transform="translate(39.966 51.384)"/><path class="c" d="M119.355,122.233a2.422,2.422,0,1,0,2.422,2.422A2.343,2.343,0,0,0,119.355,122.233Z" transform="translate(41.961 51.384)"/><path class="c" d="M127.939,122.233a2.422,2.422,0,1,0,2.422,2.422A2.419,2.419,0,0,0,127.939,122.233Z" transform="translate(43.956 51.384)"/><path class="c" d="M136.42,122.233a2.422,2.422,0,1,0,2.422,2.422A2.344,2.344,0,0,0,136.42,122.233Z" transform="translate(45.927 51.384)"/><path class="c" d="M145,122.233a2.422,2.422,0,1,0,2.422,2.422A2.419,2.419,0,0,0,145,122.233Z" transform="translate(47.921 51.384)"/><path class="c" d="M153.484,122.233a2.422,2.422,0,1,0,2.422,2.422A2.274,2.274,0,0,0,153.484,122.233Z" transform="translate(49.892 51.384)"/><path class="c" d="M59.473,130.713a2.534,2.534,0,0,0-2.422,2.55,2.507,2.507,0,0,0,2.422,2.422,2.42,2.42,0,0,0,2.422-2.422A2.376,2.376,0,0,0,59.473,130.713Z" transform="translate(28.046 53.354)"/><path class="c" d="M68.057,130.713a2.422,2.422,0,1,0,2.422,2.422A2.42,2.42,0,0,0,68.057,130.713Z" transform="translate(30.041 53.354)"/><path class="c" d="M76.641,130.713a2.422,2.422,0,1,0,2.422,2.422A2.507,2.507,0,0,0,76.641,130.713Z" transform="translate(32.036 53.354)"/><path class="c" d="M85.122,130.713a2.422,2.422,0,1,0,2.422,2.422A2.342,2.342,0,0,0,85.122,130.713Z" transform="translate(34.006 53.354)"/><path class="c" d="M93.706,130.713a2.422,2.422,0,1,0,2.422,2.422A2.42,2.42,0,0,0,93.706,130.713Z" transform="translate(36.001 53.354)"/><path class="c" d="M102.29,130.713a2.422,2.422,0,1,0,2.422,2.422A2.506,2.506,0,0,0,102.29,130.713Z" transform="translate(37.996 53.354)"/><path class="c" d="M110.771,130.713a2.422,2.422,0,1,0,2.422,2.422A2.42,2.42,0,0,0,110.771,130.713Z" transform="translate(39.966 53.354)"/><path class="c" d="M119.355,130.713a2.422,2.422,0,1,0,2.422,2.422A2.42,2.42,0,0,0,119.355,130.713Z" transform="translate(41.961 53.354)"/><path class="c" d="M127.939,130.713a2.422,2.422,0,1,0,2.422,2.422A2.507,2.507,0,0,0,127.939,130.713Z" transform="translate(43.956 53.354)"/><path class="c" d="M136.42,130.713a2.422,2.422,0,1,0,2.422,2.422A2.42,2.42,0,0,0,136.42,130.713Z" transform="translate(45.927 53.354)"/><path class="c" d="M145,130.713a2.422,2.422,0,1,0,2.422,2.422A2.507,2.507,0,0,0,145,130.713Z" transform="translate(47.921 53.354)"/><path class="c" d="M153.484,130.713a2.422,2.422,0,1,0,2.422,2.422A2.342,2.342,0,0,0,153.484,130.713Z" transform="translate(49.892 53.354)"/><path class="c" d="M59.473,139.3a2.42,2.42,0,0,0-2.422,2.422,2.507,2.507,0,0,0,2.422,2.422,2.422,2.422,0,0,0,0-4.843Z" transform="translate(28.046 55.349)"/><path class="c" d="M68.057,139.3a2.42,2.42,0,0,0-2.422,2.422,2.507,2.507,0,0,0,2.422,2.422,2.422,2.422,0,0,0,0-4.843Z" transform="translate(30.041 55.349)"/><path class="c" d="M76.641,139.3a2.42,2.42,0,0,0-2.422,2.422,2.507,2.507,0,0,0,2.422,2.422,2.42,2.42,0,0,0,2.422-2.422A2.507,2.507,0,0,0,76.641,139.3Z" transform="translate(32.036 55.349)"/><path class="c" d="M85.122,139.3a2.42,2.42,0,0,0-2.422,2.422,2.507,2.507,0,0,0,2.422,2.422,2.422,2.422,0,1,0,0-4.843Z" transform="translate(34.006 55.349)"/><path class="c" d="M93.706,139.3a2.42,2.42,0,0,0-2.422,2.422,2.507,2.507,0,0,0,2.422,2.422,2.422,2.422,0,0,0,0-4.843Z" transform="translate(36.001 55.349)"/><path class="c" d="M102.29,139.3a2.42,2.42,0,0,0-2.421,2.422,2.507,2.507,0,0,0,2.421,2.422,2.42,2.42,0,0,0,2.422-2.422A2.506,2.506,0,0,0,102.29,139.3Z" transform="translate(37.996 55.349)"/><path class="c" d="M110.771,139.3a2.42,2.42,0,0,0-2.422,2.422,2.507,2.507,0,0,0,2.422,2.422,2.422,2.422,0,1,0,0-4.843Z" transform="translate(39.966 55.349)"/><path class="c" d="M119.355,139.3a2.42,2.42,0,0,0-2.422,2.422,2.507,2.507,0,0,0,2.422,2.422,2.422,2.422,0,0,0,0-4.843Z" transform="translate(41.961 55.349)"/><path class="c" d="M127.939,139.3a2.42,2.42,0,0,0-2.422,2.422,2.507,2.507,0,0,0,2.422,2.422,2.42,2.42,0,0,0,2.422-2.422A2.507,2.507,0,0,0,127.939,139.3Z" transform="translate(43.956 55.349)"/><path class="c" d="M136.42,139.3A2.42,2.42,0,0,0,134,141.719a2.506,2.506,0,0,0,2.422,2.422,2.422,2.422,0,0,0,0-4.843Z" transform="translate(45.927 55.349)"/><path class="c" d="M145,139.3a2.42,2.42,0,0,0-2.422,2.422A2.506,2.506,0,0,0,145,144.14a2.421,2.421,0,0,0,2.422-2.422A2.507,2.507,0,0,0,145,139.3Z" transform="translate(47.921 55.349)"/><path class="c" d="M153.484,139.3a2.42,2.42,0,0,0-2.422,2.422,2.507,2.507,0,0,0,2.422,2.422,2.422,2.422,0,0,0,0-4.843Z" transform="translate(49.892 55.349)"/><path class="c" d="M59.473,147.881a2.422,2.422,0,1,0,2.422,2.422A2.275,2.275,0,0,0,59.473,147.881Z" transform="translate(28.046 57.344)"/><path class="c" d="M68.057,147.881a2.422,2.422,0,1,0,2.422,2.422A2.344,2.344,0,0,0,68.057,147.881Z" transform="translate(30.041 57.344)"/><path class="c" d="M76.641,147.881a2.422,2.422,0,1,0,2.422,2.422A2.42,2.42,0,0,0,76.641,147.881Z" transform="translate(32.036 57.344)"/><path class="c" d="M85.122,147.881a2.422,2.422,0,1,0,2.422,2.422A2.275,2.275,0,0,0,85.122,147.881Z" transform="translate(34.006 57.344)"/><path class="c" d="M93.706,147.881a2.422,2.422,0,1,0,2.422,2.422A2.344,2.344,0,0,0,93.706,147.881Z" transform="translate(36.001 57.344)"/><path class="c" d="M102.29,147.881a2.422,2.422,0,1,0,2.422,2.422A2.42,2.42,0,0,0,102.29,147.881Z" transform="translate(37.996 57.344)"/><path class="c" d="M110.771,147.881a2.422,2.422,0,1,0,2.422,2.422A2.344,2.344,0,0,0,110.771,147.881Z" transform="translate(39.966 57.344)"/><path class="c" d="M119.355,147.881a2.422,2.422,0,1,0,2.422,2.422A2.344,2.344,0,0,0,119.355,147.881Z" transform="translate(41.961 57.344)"/><path class="c" d="M127.939,147.881a2.422,2.422,0,1,0,2.422,2.422A2.42,2.42,0,0,0,127.939,147.881Z" transform="translate(43.956 57.344)"/><path class="c" d="M136.42,147.881a2.422,2.422,0,1,0,2.422,2.422A2.344,2.344,0,0,0,136.42,147.881Z" transform="translate(45.927 57.344)"/><path class="c" d="M145,147.881a2.422,2.422,0,1,0,2.422,2.422A2.42,2.42,0,0,0,145,147.881Z" transform="translate(47.921 57.344)"/><path class="c" d="M153.484,147.881a2.422,2.422,0,1,0,2.422,2.422A2.275,2.275,0,0,0,153.484,147.881Z" transform="translate(49.892 57.344)"/><path class="c" d="M59.473,156.362a2.422,2.422,0,1,0,2.422,2.422A2.342,2.342,0,0,0,59.473,156.362Z" transform="translate(28.046 59.314)"/><path class="c" d="M68.057,156.362a2.422,2.422,0,1,0,2.422,2.422A2.42,2.42,0,0,0,68.057,156.362Z" transform="translate(30.041 59.314)"/><path class="c" d="M76.641,156.362a2.422,2.422,0,1,0,2.422,2.422A2.507,2.507,0,0,0,76.641,156.362Z" transform="translate(32.036 59.314)"/><path class="c" d="M85.122,156.362a2.422,2.422,0,1,0,2.422,2.422A2.342,2.342,0,0,0,85.122,156.362Z" transform="translate(34.006 59.314)"/><path class="c" d="M93.706,156.362a2.422,2.422,0,1,0,2.422,2.422A2.42,2.42,0,0,0,93.706,156.362Z" transform="translate(36.001 59.314)"/><path class="c" d="M102.29,156.362a2.422,2.422,0,1,0,2.422,2.422A2.506,2.506,0,0,0,102.29,156.362Z" transform="translate(37.996 59.314)"/><path class="c" d="M110.771,156.362a2.422,2.422,0,1,0,2.422,2.422A2.42,2.42,0,0,0,110.771,156.362Z" transform="translate(39.966 59.314)"/><path class="c" d="M119.355,156.362a2.422,2.422,0,1,0,2.422,2.422A2.42,2.42,0,0,0,119.355,156.362Z" transform="translate(41.961 59.314)"/><path class="c" d="M127.939,156.362a2.422,2.422,0,1,0,2.422,2.422A2.507,2.507,0,0,0,127.939,156.362Z" transform="translate(43.956 59.314)"/><path class="c" d="M136.42,156.362a2.422,2.422,0,1,0,2.422,2.422A2.42,2.42,0,0,0,136.42,156.362Z" transform="translate(45.927 59.314)"/><path class="c" d="M145,156.362a2.422,2.422,0,1,0,2.422,2.422A2.507,2.507,0,0,0,145,156.362Z" transform="translate(47.921 59.314)"/><path class="c" d="M153.484,156.362a2.422,2.422,0,1,0,2.422,2.422A2.342,2.342,0,0,0,153.484,156.362Z" transform="translate(49.892 59.314)"/><path class="c" d="M59.473,164.946a2.422,2.422,0,1,0,2.422,2.422A2.341,2.341,0,0,0,59.473,164.946Z" transform="translate(28.046 61.309)"/><path class="c" d="M68.057,164.946a2.422,2.422,0,1,0,2.422,2.422A2.42,2.42,0,0,0,68.057,164.946Z" transform="translate(30.041 61.309)"/><path class="c" d="M76.641,164.946a2.422,2.422,0,1,0,2.422,2.422A2.507,2.507,0,0,0,76.641,164.946Z" transform="translate(32.036 61.309)"/><path class="c" d="M85.122,164.946a2.422,2.422,0,1,0,2.422,2.422A2.342,2.342,0,0,0,85.122,164.946Z" transform="translate(34.006 61.309)"/><path class="c" d="M93.706,164.946a2.422,2.422,0,1,0,2.422,2.422A2.42,2.42,0,0,0,93.706,164.946Z" transform="translate(36.001 61.309)"/><path class="c" d="M102.29,164.946a2.422,2.422,0,1,0,2.422,2.422A2.506,2.506,0,0,0,102.29,164.946Z" transform="translate(37.996 61.309)"/><path class="c" d="M110.771,164.946a2.422,2.422,0,1,0,2.422,2.422A2.42,2.42,0,0,0,110.771,164.946Z" transform="translate(39.966 61.309)"/><path class="c" d="M119.355,164.946a2.422,2.422,0,1,0,2.422,2.422A2.42,2.42,0,0,0,119.355,164.946Z" transform="translate(41.961 61.309)"/><path class="c" d="M127.939,164.946a2.422,2.422,0,1,0,2.422,2.422A2.507,2.507,0,0,0,127.939,164.946Z" transform="translate(43.956 61.309)"/><path class="c" d="M136.42,164.946a2.422,2.422,0,1,0,2.422,2.422A2.42,2.42,0,0,0,136.42,164.946Z" transform="translate(45.927 61.309)"/><path class="c" d="M145,164.946a2.422,2.422,0,1,0,2.422,2.422A2.507,2.507,0,0,0,145,164.946Z" transform="translate(47.921 61.309)"/><path class="c" d="M153.484,164.946a2.422,2.422,0,1,0,2.422,2.422A2.342,2.342,0,0,0,153.484,164.946Z" transform="translate(49.892 61.309)"/></g></svg>