<svg xmlns="http://www.w3.org/2000/svg" width="232.434" height="208.344" viewBox="0 0 232.434 208.344"><defs><style>.a{opacity:0.7;}.b{fill:#305bc9;}.c{fill:#fff;}</style></defs><g class="a" transform="translate(-6 -52)"><circle class="b" cx="85.5" cy="85.5" r="85.5" transform="translate(6 52)"/><path class="c" d="M59.869,88a2.916,2.916,0,0,0-2.817,2.817,2.817,2.817,0,1,0,5.634,0A2.724,2.724,0,0,0,59.869,88Z" transform="translate(40.963 56.399)"/><path class="c" d="M68.453,88a2.817,2.817,0,1,0,2.817,2.817A2.815,2.815,0,0,0,68.453,88Z" transform="translate(44.685 56.399)"/><path class="c" d="M77.037,88a2.817,2.817,0,1,0,2.817,2.817A2.916,2.916,0,0,0,77.037,88Z" transform="translate(48.407 56.399)"/><path class="c" d="M85.517,88a2.817,2.817,0,1,0,2.817,2.817A2.724,2.724,0,0,0,85.517,88Z" transform="translate(52.084 56.399)"/><path class="c" d="M94.1,88a2.817,2.817,0,1,0,2.817,2.817A2.815,2.815,0,0,0,94.1,88Z" transform="translate(55.806 56.399)"/><path class="c" d="M102.685,88a2.817,2.817,0,1,0,2.817,2.817A2.917,2.917,0,0,0,102.685,88Z" transform="translate(59.529 56.399)"/><path class="c" d="M111.166,88a2.817,2.817,0,1,0,2.817,2.817A2.815,2.815,0,0,0,111.166,88Z" transform="translate(63.206 56.399)"/><path class="c" d="M119.75,88a2.817,2.817,0,1,0,2.817,2.817A2.815,2.815,0,0,0,119.75,88Z" transform="translate(66.928 56.399)"/><path class="c" d="M128.334,88a2.817,2.817,0,1,0,2.817,2.817A2.917,2.917,0,0,0,128.334,88Z" transform="translate(70.65 56.399)"/><path class="c" d="M136.814,88a2.817,2.817,0,1,0,2.817,2.817A2.816,2.816,0,0,0,136.814,88Z" transform="translate(74.327 56.399)"/><path class="c" d="M145.4,88a2.817,2.817,0,1,0,2.817,2.817A2.915,2.915,0,0,0,145.4,88Z" transform="translate(78.049 56.399)"/><path class="c" d="M153.879,93.738a2.817,2.817,0,1,0-2.817-2.817A2.917,2.917,0,0,0,153.879,93.738Z" transform="translate(81.727 56.444)"/><path class="c" d="M59.869,96.584A2.817,2.817,0,1,0,62.686,99.4,2.646,2.646,0,0,0,59.869,96.584Z" transform="translate(40.963 60.121)"/><path class="c" d="M68.453,96.584A2.817,2.817,0,1,0,71.27,99.4,2.726,2.726,0,0,0,68.453,96.584Z" transform="translate(44.685 60.121)"/><path class="c" d="M77.037,96.584A2.817,2.817,0,1,0,79.854,99.4,2.815,2.815,0,0,0,77.037,96.584Z" transform="translate(48.407 60.121)"/><path class="c" d="M85.517,96.584A2.817,2.817,0,1,0,88.334,99.4,2.646,2.646,0,0,0,85.517,96.584Z" transform="translate(52.084 60.121)"/><path class="c" d="M94.1,96.584A2.817,2.817,0,1,0,96.918,99.4,2.726,2.726,0,0,0,94.1,96.584Z" transform="translate(55.806 60.121)"/><path class="c" d="M102.685,96.584A2.817,2.817,0,1,0,105.5,99.4,2.816,2.816,0,0,0,102.685,96.584Z" transform="translate(59.529 60.121)"/><path class="c" d="M111.166,96.584a2.817,2.817,0,1,0,2.817,2.817A2.727,2.727,0,0,0,111.166,96.584Z" transform="translate(63.206 60.121)"/><path class="c" d="M119.75,96.584a2.817,2.817,0,1,0,2.817,2.817A2.726,2.726,0,0,0,119.75,96.584Z" transform="translate(66.928 60.121)"/><path class="c" d="M128.334,96.584a2.817,2.817,0,1,0,2.817,2.817A2.815,2.815,0,0,0,128.334,96.584Z" transform="translate(70.65 60.121)"/><path class="c" d="M136.814,96.584a2.817,2.817,0,1,0,2.817,2.817A2.726,2.726,0,0,0,136.814,96.584Z" transform="translate(74.327 60.121)"/><path class="c" d="M145.4,96.584a2.817,2.817,0,1,0,2.817,2.817A2.816,2.816,0,0,0,145.4,96.584Z" transform="translate(78.049 60.121)"/><path class="c" d="M153.879,96.584A2.817,2.817,0,1,0,156.7,99.4,2.646,2.646,0,0,0,153.879,96.584Z" transform="translate(81.727 60.121)"/><path class="c" d="M59.869,105.065a2.817,2.817,0,1,0,2.817,2.817A2.723,2.723,0,0,0,59.869,105.065Z" transform="translate(40.963 63.799)"/><path class="c" d="M68.453,105.065a2.817,2.817,0,1,0,2.817,2.817A2.814,2.814,0,0,0,68.453,105.065Z" transform="translate(44.685 63.799)"/><path class="c" d="M77.037,105.065a2.817,2.817,0,1,0,2.817,2.817A2.916,2.916,0,0,0,77.037,105.065Z" transform="translate(48.407 63.799)"/><path class="c" d="M85.517,105.065a2.817,2.817,0,1,0,2.817,2.817A2.723,2.723,0,0,0,85.517,105.065Z" transform="translate(52.084 63.799)"/><path class="c" d="M94.1,105.065a2.817,2.817,0,1,0,2.817,2.817A2.814,2.814,0,0,0,94.1,105.065Z" transform="translate(55.806 63.799)"/><path class="c" d="M102.685,105.065a2.817,2.817,0,1,0,2.817,2.817A2.916,2.916,0,0,0,102.685,105.065Z" transform="translate(59.529 63.799)"/><path class="c" d="M111.166,105.065a2.817,2.817,0,1,0,2.817,2.817A2.814,2.814,0,0,0,111.166,105.065Z" transform="translate(63.206 63.799)"/><path class="c" d="M119.75,105.065a2.817,2.817,0,1,0,2.817,2.817A2.814,2.814,0,0,0,119.75,105.065Z" transform="translate(66.928 63.799)"/><path class="c" d="M128.334,105.065a2.817,2.817,0,1,0,2.817,2.817A2.916,2.916,0,0,0,128.334,105.065Z" transform="translate(70.65 63.799)"/><path class="c" d="M136.814,105.065a2.817,2.817,0,1,0,2.817,2.817A2.815,2.815,0,0,0,136.814,105.065Z" transform="translate(74.327 63.799)"/><path class="c" d="M145.4,105.065a2.817,2.817,0,1,0,2.817,2.817A2.915,2.915,0,0,0,145.4,105.065Z" transform="translate(78.049 63.799)"/><path class="c" d="M153.879,105.065a2.817,2.817,0,1,0,2.817,2.817A2.723,2.723,0,0,0,153.879,105.065Z" transform="translate(81.727 63.799)"/><path class="c" d="M59.869,119.283a2.817,2.817,0,1,0-2.817-2.817A2.817,2.817,0,0,0,59.869,119.283Z" transform="translate(40.963 67.521)"/><path class="c" d="M68.453,113.649a2.817,2.817,0,1,0,2.817,2.817A2.814,2.814,0,0,0,68.453,113.649Z" transform="translate(44.685 67.521)"/><path class="c" d="M77.037,113.649a2.817,2.817,0,1,0,2.817,2.817A2.916,2.916,0,0,0,77.037,113.649Z" transform="translate(48.407 67.521)"/><path class="c" d="M85.517,113.649a2.817,2.817,0,1,0,2.817,2.817A2.723,2.723,0,0,0,85.517,113.649Z" transform="translate(52.084 67.521)"/><path class="c" d="M94.1,113.649a2.817,2.817,0,1,0,2.817,2.817A2.814,2.814,0,0,0,94.1,113.649Z" transform="translate(55.806 67.521)"/><path class="c" d="M102.685,113.649a2.817,2.817,0,1,0,2.817,2.817A2.916,2.916,0,0,0,102.685,113.649Z" transform="translate(59.529 67.521)"/><path class="c" d="M111.166,113.649a2.817,2.817,0,1,0,2.817,2.817A2.814,2.814,0,0,0,111.166,113.649Z" transform="translate(63.206 67.521)"/><path class="c" d="M119.75,113.649a2.817,2.817,0,1,0,2.817,2.817A2.814,2.814,0,0,0,119.75,113.649Z" transform="translate(66.928 67.521)"/><path class="c" d="M128.334,113.649a2.817,2.817,0,1,0,2.817,2.817A2.916,2.916,0,0,0,128.334,113.649Z" transform="translate(70.65 67.521)"/><path class="c" d="M136.814,113.649a2.817,2.817,0,1,0,2.817,2.817A2.815,2.815,0,0,0,136.814,113.649Z" transform="translate(74.327 67.521)"/><path class="c" d="M145.4,113.649a2.817,2.817,0,1,0,2.817,2.817A2.915,2.915,0,0,0,145.4,113.649Z" transform="translate(78.049 67.521)"/><path class="c" d="M153.879,113.649a2.817,2.817,0,1,0,2.817,2.817A2.723,2.723,0,0,0,153.879,113.649Z" transform="translate(81.727 67.521)"/><path class="c" d="M59.869,122.233a2.817,2.817,0,1,0,2.817,2.817A2.645,2.645,0,0,0,59.869,122.233Z" transform="translate(40.963 71.243)"/><path class="c" d="M68.453,122.233a2.817,2.817,0,1,0,2.817,2.817A2.726,2.726,0,0,0,68.453,122.233Z" transform="translate(44.685 71.243)"/><path class="c" d="M77.037,122.233a2.817,2.817,0,1,0,2.817,2.817A2.814,2.814,0,0,0,77.037,122.233Z" transform="translate(48.407 71.243)"/><path class="c" d="M85.517,122.233a2.817,2.817,0,1,0,2.817,2.817A2.645,2.645,0,0,0,85.517,122.233Z" transform="translate(52.084 71.243)"/><path class="c" d="M94.1,122.233a2.817,2.817,0,1,0,2.817,2.817A2.726,2.726,0,0,0,94.1,122.233Z" transform="translate(55.806 71.243)"/><path class="c" d="M102.685,122.233a2.817,2.817,0,1,0,2.817,2.817A2.815,2.815,0,0,0,102.685,122.233Z" transform="translate(59.529 71.243)"/><path class="c" d="M111.166,122.233a2.817,2.817,0,1,0,2.817,2.817A2.726,2.726,0,0,0,111.166,122.233Z" transform="translate(63.206 71.243)"/><path class="c" d="M119.75,122.233a2.817,2.817,0,1,0,2.817,2.817A2.726,2.726,0,0,0,119.75,122.233Z" transform="translate(66.928 71.243)"/><path class="c" d="M128.334,122.233a2.817,2.817,0,1,0,2.817,2.817A2.814,2.814,0,0,0,128.334,122.233Z" transform="translate(70.65 71.243)"/><path class="c" d="M136.814,122.233a2.817,2.817,0,1,0,2.817,2.817A2.726,2.726,0,0,0,136.814,122.233Z" transform="translate(74.327 71.243)"/><path class="c" d="M145.4,122.233a2.817,2.817,0,1,0,2.817,2.817A2.815,2.815,0,0,0,145.4,122.233Z" transform="translate(78.049 71.243)"/><path class="c" d="M153.879,122.233a2.817,2.817,0,1,0,2.817,2.817A2.645,2.645,0,0,0,153.879,122.233Z" transform="translate(81.727 71.243)"/><path class="c" d="M59.869,130.713a2.948,2.948,0,0,0-2.817,2.966,2.917,2.917,0,0,0,2.817,2.817,2.815,2.815,0,0,0,2.817-2.817A2.763,2.763,0,0,0,59.869,130.713Z" transform="translate(40.963 74.92)"/><path class="c" d="M68.453,130.713a2.817,2.817,0,1,0,2.817,2.817A2.815,2.815,0,0,0,68.453,130.713Z" transform="translate(44.685 74.92)"/><path class="c" d="M77.037,130.713a2.817,2.817,0,1,0,2.817,2.817A2.917,2.917,0,0,0,77.037,130.713Z" transform="translate(48.407 74.92)"/><path class="c" d="M85.517,130.713a2.817,2.817,0,1,0,2.817,2.817A2.724,2.724,0,0,0,85.517,130.713Z" transform="translate(52.084 74.92)"/><path class="c" d="M94.1,130.713a2.817,2.817,0,1,0,2.817,2.817A2.815,2.815,0,0,0,94.1,130.713Z" transform="translate(55.806 74.92)"/><path class="c" d="M102.685,130.713a2.817,2.817,0,1,0,2.817,2.817A2.917,2.917,0,0,0,102.685,130.713Z" transform="translate(59.529 74.92)"/><path class="c" d="M111.166,130.713a2.817,2.817,0,1,0,2.817,2.817A2.815,2.815,0,0,0,111.166,130.713Z" transform="translate(63.206 74.92)"/><path class="c" d="M119.75,130.713a2.817,2.817,0,1,0,2.817,2.817A2.815,2.815,0,0,0,119.75,130.713Z" transform="translate(66.928 74.92)"/><path class="c" d="M128.334,130.713a2.817,2.817,0,1,0,2.817,2.817A2.917,2.917,0,0,0,128.334,130.713Z" transform="translate(70.65 74.92)"/><path class="c" d="M136.814,130.713a2.817,2.817,0,1,0,2.817,2.817A2.816,2.816,0,0,0,136.814,130.713Z" transform="translate(74.327 74.92)"/><path class="c" d="M145.4,130.713a2.817,2.817,0,1,0,2.817,2.817A2.916,2.916,0,0,0,145.4,130.713Z" transform="translate(78.049 74.92)"/><path class="c" d="M153.879,130.713a2.817,2.817,0,1,0,2.817,2.817A2.724,2.724,0,0,0,153.879,130.713Z" transform="translate(81.727 74.92)"/><path class="c" d="M59.869,139.3a2.815,2.815,0,0,0-2.817,2.817,2.917,2.917,0,0,0,2.817,2.817,2.817,2.817,0,1,0,0-5.634Z" transform="translate(40.963 78.643)"/><path class="c" d="M68.453,139.3a2.815,2.815,0,0,0-2.817,2.817,2.917,2.917,0,0,0,2.817,2.817,2.817,2.817,0,0,0,0-5.634Z" transform="translate(44.685 78.643)"/><path class="c" d="M77.037,139.3a2.815,2.815,0,0,0-2.817,2.817,2.917,2.917,0,0,0,2.817,2.817,2.815,2.815,0,0,0,2.817-2.817A2.917,2.917,0,0,0,77.037,139.3Z" transform="translate(48.407 78.643)"/><path class="c" d="M85.517,139.3a2.815,2.815,0,0,0-2.817,2.817,2.917,2.917,0,0,0,2.817,2.817,2.817,2.817,0,1,0,0-5.634Z" transform="translate(52.084 78.643)"/><path class="c" d="M94.1,139.3a2.815,2.815,0,0,0-2.817,2.817,2.916,2.916,0,0,0,2.817,2.817,2.817,2.817,0,1,0,0-5.634Z" transform="translate(55.806 78.643)"/><path class="c" d="M102.685,139.3a2.816,2.816,0,0,0-2.817,2.817,2.916,2.916,0,0,0,2.817,2.817,2.815,2.815,0,0,0,2.817-2.817A2.917,2.917,0,0,0,102.685,139.3Z" transform="translate(59.529 78.643)"/><path class="c" d="M111.166,139.3a2.815,2.815,0,0,0-2.817,2.817,2.916,2.916,0,0,0,2.817,2.817,2.817,2.817,0,1,0,0-5.634Z" transform="translate(63.206 78.643)"/><path class="c" d="M119.75,139.3a2.815,2.815,0,0,0-2.817,2.817,2.917,2.917,0,0,0,2.817,2.817,2.817,2.817,0,0,0,0-5.634Z" transform="translate(66.928 78.643)"/><path class="c" d="M128.334,139.3a2.815,2.815,0,0,0-2.817,2.817,2.917,2.917,0,0,0,2.817,2.817,2.815,2.815,0,0,0,2.817-2.817A2.917,2.917,0,0,0,128.334,139.3Z" transform="translate(70.65 78.643)"/><path class="c" d="M136.814,139.3A2.816,2.816,0,0,0,134,142.114a2.917,2.917,0,0,0,2.817,2.817,2.817,2.817,0,1,0,0-5.634Z" transform="translate(74.327 78.643)"/><path class="c" d="M145.4,139.3a2.816,2.816,0,0,0-2.817,2.817,2.917,2.917,0,0,0,2.817,2.817,2.815,2.815,0,0,0,2.817-2.817A2.916,2.916,0,0,0,145.4,139.3Z" transform="translate(78.049 78.643)"/><path class="c" d="M153.879,139.3a2.815,2.815,0,0,0-2.817,2.817,2.917,2.917,0,0,0,2.817,2.817,2.817,2.817,0,1,0,0-5.634Z" transform="translate(81.727 78.643)"/><path class="c" d="M59.869,147.881a2.817,2.817,0,1,0,2.817,2.817A2.646,2.646,0,0,0,59.869,147.881Z" transform="translate(40.963 82.365)"/><path class="c" d="M68.453,147.881A2.817,2.817,0,1,0,71.27,150.7,2.727,2.727,0,0,0,68.453,147.881Z" transform="translate(44.685 82.365)"/><path class="c" d="M77.037,147.881a2.817,2.817,0,1,0,2.817,2.817A2.815,2.815,0,0,0,77.037,147.881Z" transform="translate(48.407 82.365)"/><path class="c" d="M85.517,147.881a2.817,2.817,0,1,0,2.817,2.817A2.646,2.646,0,0,0,85.517,147.881Z" transform="translate(52.084 82.365)"/><path class="c" d="M94.1,147.881a2.817,2.817,0,1,0,2.817,2.817A2.727,2.727,0,0,0,94.1,147.881Z" transform="translate(55.806 82.365)"/><path class="c" d="M102.685,147.881A2.817,2.817,0,1,0,105.5,150.7,2.816,2.816,0,0,0,102.685,147.881Z" transform="translate(59.529 82.365)"/><path class="c" d="M111.166,147.881a2.817,2.817,0,1,0,2.817,2.817A2.727,2.727,0,0,0,111.166,147.881Z" transform="translate(63.206 82.365)"/><path class="c" d="M119.75,147.881a2.817,2.817,0,1,0,2.817,2.817A2.726,2.726,0,0,0,119.75,147.881Z" transform="translate(66.928 82.365)"/><path class="c" d="M128.334,147.881a2.817,2.817,0,1,0,2.817,2.817A2.815,2.815,0,0,0,128.334,147.881Z" transform="translate(70.65 82.365)"/><path class="c" d="M136.814,147.881a2.817,2.817,0,1,0,2.817,2.817A2.726,2.726,0,0,0,136.814,147.881Z" transform="translate(74.327 82.365)"/><path class="c" d="M145.4,147.881a2.817,2.817,0,1,0,2.817,2.817A2.816,2.816,0,0,0,145.4,147.881Z" transform="translate(78.049 82.365)"/><path class="c" d="M153.879,147.881A2.817,2.817,0,1,0,156.7,150.7,2.646,2.646,0,0,0,153.879,147.881Z" transform="translate(81.727 82.365)"/><path class="c" d="M59.869,156.362a2.817,2.817,0,1,0,2.817,2.817A2.724,2.724,0,0,0,59.869,156.362Z" transform="translate(40.963 86.042)"/><path class="c" d="M68.453,156.362a2.817,2.817,0,1,0,2.817,2.817A2.815,2.815,0,0,0,68.453,156.362Z" transform="translate(44.685 86.042)"/><path class="c" d="M77.037,156.362a2.817,2.817,0,1,0,2.817,2.817A2.917,2.917,0,0,0,77.037,156.362Z" transform="translate(48.407 86.042)"/><path class="c" d="M85.517,156.362a2.817,2.817,0,1,0,2.817,2.817A2.724,2.724,0,0,0,85.517,156.362Z" transform="translate(52.084 86.042)"/><path class="c" d="M94.1,156.362a2.817,2.817,0,1,0,2.817,2.817A2.815,2.815,0,0,0,94.1,156.362Z" transform="translate(55.806 86.042)"/><path class="c" d="M102.685,156.362a2.817,2.817,0,1,0,2.817,2.817A2.917,2.917,0,0,0,102.685,156.362Z" transform="translate(59.529 86.042)"/><path class="c" d="M111.166,156.362a2.817,2.817,0,1,0,2.817,2.817A2.815,2.815,0,0,0,111.166,156.362Z" transform="translate(63.206 86.042)"/><path class="c" d="M119.75,156.362a2.817,2.817,0,1,0,2.817,2.817A2.815,2.815,0,0,0,119.75,156.362Z" transform="translate(66.928 86.042)"/><path class="c" d="M128.334,156.362a2.817,2.817,0,1,0,2.817,2.817A2.917,2.917,0,0,0,128.334,156.362Z" transform="translate(70.65 86.042)"/><path class="c" d="M136.814,156.362a2.817,2.817,0,1,0,2.817,2.817A2.816,2.816,0,0,0,136.814,156.362Z" transform="translate(74.327 86.042)"/><path class="c" d="M145.4,156.362a2.817,2.817,0,1,0,2.817,2.817A2.916,2.916,0,0,0,145.4,156.362Z" transform="translate(78.049 86.042)"/><path class="c" d="M153.879,156.362a2.817,2.817,0,1,0,2.817,2.817A2.724,2.724,0,0,0,153.879,156.362Z" transform="translate(81.727 86.042)"/><path class="c" d="M59.869,164.946a2.817,2.817,0,1,0,2.817,2.817A2.724,2.724,0,0,0,59.869,164.946Z" transform="translate(40.963 89.764)"/><path class="c" d="M68.453,164.946a2.817,2.817,0,1,0,2.817,2.817A2.815,2.815,0,0,0,68.453,164.946Z" transform="translate(44.685 89.764)"/><path class="c" d="M77.037,164.946a2.817,2.817,0,1,0,2.817,2.817A2.917,2.917,0,0,0,77.037,164.946Z" transform="translate(48.407 89.764)"/><path class="c" d="M85.517,164.946a2.817,2.817,0,1,0,2.817,2.817A2.724,2.724,0,0,0,85.517,164.946Z" transform="translate(52.084 89.764)"/><path class="c" d="M94.1,164.946a2.817,2.817,0,1,0,2.817,2.817A2.815,2.815,0,0,0,94.1,164.946Z" transform="translate(55.806 89.764)"/><path class="c" d="M102.685,164.946a2.817,2.817,0,1,0,2.817,2.817A2.917,2.917,0,0,0,102.685,164.946Z" transform="translate(59.529 89.764)"/><path class="c" d="M111.166,164.946a2.817,2.817,0,1,0,2.817,2.817A2.815,2.815,0,0,0,111.166,164.946Z" transform="translate(63.206 89.764)"/><path class="c" d="M119.75,164.946a2.817,2.817,0,1,0,2.817,2.817A2.815,2.815,0,0,0,119.75,164.946Z" transform="translate(66.928 89.764)"/><path class="c" d="M128.334,164.946a2.817,2.817,0,1,0,2.817,2.817A2.917,2.917,0,0,0,128.334,164.946Z" transform="translate(70.65 89.764)"/><path class="c" d="M136.814,164.946a2.817,2.817,0,1,0,2.817,2.817A2.816,2.816,0,0,0,136.814,164.946Z" transform="translate(74.327 89.764)"/><path class="c" d="M145.4,164.946a2.817,2.817,0,1,0,2.817,2.817A2.916,2.916,0,0,0,145.4,164.946Z" transform="translate(78.049 89.764)"/><path class="c" d="M153.879,164.946a2.817,2.817,0,1,0,2.817,2.817A2.724,2.724,0,0,0,153.879,164.946Z" transform="translate(81.727 89.764)"/><path class="c" d="M59.869,88a2.916,2.916,0,0,0-2.817,2.817,2.817,2.817,0,1,0,5.634,0A2.724,2.724,0,0,0,59.869,88Z" transform="translate(40.963 56.399)"/><path class="c" d="M68.453,88a2.817,2.817,0,1,0,2.817,2.817A2.815,2.815,0,0,0,68.453,88Z" transform="translate(44.685 56.399)"/><path class="c" d="M77.037,88a2.817,2.817,0,1,0,2.817,2.817A2.916,2.916,0,0,0,77.037,88Z" transform="translate(48.407 56.399)"/><path class="c" d="M85.517,88a2.817,2.817,0,1,0,2.817,2.817A2.724,2.724,0,0,0,85.517,88Z" transform="translate(52.084 56.399)"/><path class="c" d="M94.1,88a2.817,2.817,0,1,0,2.817,2.817A2.815,2.815,0,0,0,94.1,88Z" transform="translate(55.806 56.399)"/><path class="c" d="M102.685,88a2.817,2.817,0,1,0,2.817,2.817A2.915,2.915,0,0,0,102.685,88Z" transform="translate(59.529 56.399)"/><path class="c" d="M111.166,88a2.817,2.817,0,1,0,2.817,2.817A2.815,2.815,0,0,0,111.166,88Z" transform="translate(63.206 56.399)"/><path class="c" d="M119.75,88a2.817,2.817,0,1,0,2.817,2.817A2.815,2.815,0,0,0,119.75,88Z" transform="translate(66.928 56.399)"/><path class="c" d="M128.334,88a2.817,2.817,0,1,0,2.817,2.817A2.917,2.917,0,0,0,128.334,88Z" transform="translate(70.65 56.399)"/><path class="c" d="M136.815,88a2.817,2.817,0,1,0,2.817,2.817A2.815,2.815,0,0,0,136.815,88Z" transform="translate(74.328 56.399)"/><path class="c" d="M145.4,88a2.817,2.817,0,1,0,2.817,2.817A2.917,2.917,0,0,0,145.4,88Z" transform="translate(78.05 56.399)"/><path class="c" d="M153.879,93.738a2.817,2.817,0,1,0-2.817-2.817A2.917,2.917,0,0,0,153.879,93.738Z" transform="translate(81.727 56.444)"/><path class="c" d="M59.869,96.584A2.817,2.817,0,1,0,62.686,99.4,2.646,2.646,0,0,0,59.869,96.584Z" transform="translate(40.963 60.121)"/><path class="c" d="M68.453,96.584A2.817,2.817,0,1,0,71.27,99.4,2.726,2.726,0,0,0,68.453,96.584Z" transform="translate(44.685 60.121)"/><path class="c" d="M77.037,96.584A2.817,2.817,0,1,0,79.854,99.4,2.815,2.815,0,0,0,77.037,96.584Z" transform="translate(48.407 60.121)"/><path class="c" d="M85.517,96.584A2.817,2.817,0,1,0,88.334,99.4,2.646,2.646,0,0,0,85.517,96.584Z" transform="translate(52.084 60.121)"/><path class="c" d="M94.1,96.584A2.817,2.817,0,1,0,96.918,99.4,2.726,2.726,0,0,0,94.1,96.584Z" transform="translate(55.806 60.121)"/><path class="c" d="M102.685,96.584A2.817,2.817,0,1,0,105.5,99.4,2.815,2.815,0,0,0,102.685,96.584Z" transform="translate(59.529 60.121)"/><path class="c" d="M111.166,96.584a2.817,2.817,0,1,0,2.817,2.817A2.726,2.726,0,0,0,111.166,96.584Z" transform="translate(63.206 60.121)"/><path class="c" d="M119.75,96.584a2.817,2.817,0,1,0,2.817,2.817A2.726,2.726,0,0,0,119.75,96.584Z" transform="translate(66.928 60.121)"/><path class="c" d="M128.334,96.584a2.817,2.817,0,1,0,2.817,2.817A2.815,2.815,0,0,0,128.334,96.584Z" transform="translate(70.65 60.121)"/><path class="c" d="M136.815,96.584a2.817,2.817,0,1,0,2.817,2.817A2.727,2.727,0,0,0,136.815,96.584Z" transform="translate(74.328 60.121)"/><path class="c" d="M145.4,96.584a2.817,2.817,0,1,0,2.817,2.817A2.815,2.815,0,0,0,145.4,96.584Z" transform="translate(78.05 60.121)"/><path class="c" d="M153.879,96.584A2.817,2.817,0,1,0,156.7,99.4,2.646,2.646,0,0,0,153.879,96.584Z" transform="translate(81.727 60.121)"/><path class="c" d="M59.869,105.065a2.817,2.817,0,1,0,2.817,2.817A2.723,2.723,0,0,0,59.869,105.065Z" transform="translate(40.963 63.799)"/><path class="c" d="M68.453,105.065a2.817,2.817,0,1,0,2.817,2.817A2.814,2.814,0,0,0,68.453,105.065Z" transform="translate(44.685 63.799)"/><path class="c" d="M77.037,105.065a2.817,2.817,0,1,0,2.817,2.817A2.916,2.916,0,0,0,77.037,105.065Z" transform="translate(48.407 63.799)"/><path class="c" d="M85.517,105.065a2.817,2.817,0,1,0,2.817,2.817A2.723,2.723,0,0,0,85.517,105.065Z" transform="translate(52.084 63.799)"/><path class="c" d="M94.1,105.065a2.817,2.817,0,1,0,2.817,2.817A2.814,2.814,0,0,0,94.1,105.065Z" transform="translate(55.806 63.799)"/><path class="c" d="M102.685,105.065a2.817,2.817,0,1,0,2.817,2.817A2.915,2.915,0,0,0,102.685,105.065Z" transform="translate(59.529 63.799)"/><path class="c" d="M111.166,105.065a2.817,2.817,0,1,0,2.817,2.817A2.814,2.814,0,0,0,111.166,105.065Z" transform="translate(63.206 63.799)"/><path class="c" d="M119.75,105.065a2.817,2.817,0,1,0,2.817,2.817A2.814,2.814,0,0,0,119.75,105.065Z" transform="translate(66.928 63.799)"/><path class="c" d="M128.334,105.065a2.817,2.817,0,1,0,2.817,2.817A2.916,2.916,0,0,0,128.334,105.065Z" transform="translate(70.65 63.799)"/><path class="c" d="M136.815,105.065a2.817,2.817,0,1,0,2.817,2.817A2.814,2.814,0,0,0,136.815,105.065Z" transform="translate(74.328 63.799)"/><path class="c" d="M145.4,105.065a2.817,2.817,0,1,0,2.817,2.817A2.916,2.916,0,0,0,145.4,105.065Z" transform="translate(78.05 63.799)"/><path class="c" d="M153.879,105.065a2.817,2.817,0,1,0,2.817,2.817A2.723,2.723,0,0,0,153.879,105.065Z" transform="translate(81.727 63.799)"/><path class="c" d="M59.942,119.284a2.817,2.817,0,1,0-2.89-2.743A2.817,2.817,0,0,0,59.942,119.284Z" transform="translate(40.962 67.522)"/><path class="c" d="M68.453,113.649a2.817,2.817,0,1,0,2.817,2.817A2.815,2.815,0,0,0,68.453,113.649Z" transform="translate(44.685 67.521)"/><path class="c" d="M77.037,113.649a2.817,2.817,0,1,0,2.817,2.817A2.916,2.916,0,0,0,77.037,113.649Z" transform="translate(48.407 67.521)"/><path class="c" d="M85.517,113.649a2.817,2.817,0,1,0,2.817,2.817A2.723,2.723,0,0,0,85.517,113.649Z" transform="translate(52.084 67.521)"/><path class="c" d="M94.1,113.649a2.817,2.817,0,1,0,2.817,2.817A2.814,2.814,0,0,0,94.1,113.649Z" transform="translate(55.806 67.521)"/><path class="c" d="M102.685,113.649a2.817,2.817,0,1,0,2.817,2.817A2.915,2.915,0,0,0,102.685,113.649Z" transform="translate(59.529 67.521)"/><path class="c" d="M111.166,113.649a2.817,2.817,0,1,0,2.817,2.817A2.814,2.814,0,0,0,111.166,113.649Z" transform="translate(63.206 67.521)"/><path class="c" d="M119.75,113.649a2.817,2.817,0,1,0,2.817,2.817A2.814,2.814,0,0,0,119.75,113.649Z" transform="translate(66.928 67.521)"/><path class="c" d="M128.334,113.649a2.817,2.817,0,1,0,2.817,2.817A2.916,2.916,0,0,0,128.334,113.649Z" transform="translate(70.65 67.521)"/><path class="c" d="M136.815,113.649a2.817,2.817,0,1,0,2.817,2.817A2.814,2.814,0,0,0,136.815,113.649Z" transform="translate(74.328 67.521)"/><path class="c" d="M145.4,113.649a2.817,2.817,0,1,0,2.817,2.817A2.916,2.916,0,0,0,145.4,113.649Z" transform="translate(78.05 67.521)"/><path class="c" d="M153.879,113.649a2.817,2.817,0,1,0,2.817,2.817A2.723,2.723,0,0,0,153.879,113.649Z" transform="translate(81.727 67.521)"/><path class="c" d="M59.869,122.233a2.817,2.817,0,1,0,2.817,2.817A2.645,2.645,0,0,0,59.869,122.233Z" transform="translate(40.963 71.243)"/><path class="c" d="M68.453,122.233a2.817,2.817,0,1,0,2.817,2.817A2.726,2.726,0,0,0,68.453,122.233Z" transform="translate(44.685 71.243)"/><path class="c" d="M77.037,122.233a2.817,2.817,0,1,0,2.817,2.817A2.814,2.814,0,0,0,77.037,122.233Z" transform="translate(48.407 71.243)"/><path class="c" d="M85.517,122.233a2.817,2.817,0,1,0,2.817,2.817A2.645,2.645,0,0,0,85.517,122.233Z" transform="translate(52.084 71.243)"/><path class="c" d="M94.1,122.233a2.817,2.817,0,1,0,2.817,2.817A2.726,2.726,0,0,0,94.1,122.233Z" transform="translate(55.806 71.243)"/><path class="c" d="M102.685,122.233a2.817,2.817,0,1,0,2.817,2.817A2.815,2.815,0,0,0,102.685,122.233Z" transform="translate(59.529 71.243)"/><path class="c" d="M111.166,122.233a2.817,2.817,0,1,0,2.817,2.817A2.726,2.726,0,0,0,111.166,122.233Z" transform="translate(63.206 71.243)"/><path class="c" d="M119.75,122.233a2.817,2.817,0,1,0,2.817,2.817A2.726,2.726,0,0,0,119.75,122.233Z" transform="translate(66.928 71.243)"/><path class="c" d="M128.334,122.233a2.817,2.817,0,1,0,2.817,2.817A2.814,2.814,0,0,0,128.334,122.233Z" transform="translate(70.65 71.243)"/><path class="c" d="M136.815,122.233a2.817,2.817,0,1,0,2.817,2.817A2.726,2.726,0,0,0,136.815,122.233Z" transform="translate(74.328 71.243)"/><path class="c" d="M145.4,122.233a2.817,2.817,0,1,0,2.817,2.817A2.814,2.814,0,0,0,145.4,122.233Z" transform="translate(78.05 71.243)"/><path class="c" d="M153.879,122.233a2.817,2.817,0,1,0,2.817,2.817A2.645,2.645,0,0,0,153.879,122.233Z" transform="translate(81.727 71.243)"/><path class="c" d="M59.869,130.713a2.948,2.948,0,0,0-2.817,2.966,2.917,2.917,0,0,0,2.817,2.817,2.815,2.815,0,0,0,2.817-2.817A2.763,2.763,0,0,0,59.869,130.713Z" transform="translate(40.963 74.92)"/><path class="c" d="M68.453,130.713a2.817,2.817,0,1,0,2.817,2.817A2.815,2.815,0,0,0,68.453,130.713Z" transform="translate(44.685 74.92)"/><path class="c" d="M77.037,130.713a2.817,2.817,0,1,0,2.817,2.817A2.917,2.917,0,0,0,77.037,130.713Z" transform="translate(48.407 74.92)"/><path class="c" d="M85.517,130.713a2.817,2.817,0,1,0,2.817,2.817A2.724,2.724,0,0,0,85.517,130.713Z" transform="translate(52.084 74.92)"/><path class="c" d="M94.1,130.713a2.817,2.817,0,1,0,2.817,2.817A2.815,2.815,0,0,0,94.1,130.713Z" transform="translate(55.806 74.92)"/><path class="c" d="M102.685,130.713a2.817,2.817,0,1,0,2.817,2.817A2.916,2.916,0,0,0,102.685,130.713Z" transform="translate(59.529 74.92)"/><path class="c" d="M111.166,130.713a2.817,2.817,0,1,0,2.817,2.817A2.815,2.815,0,0,0,111.166,130.713Z" transform="translate(63.206 74.92)"/><path class="c" d="M119.75,130.713a2.817,2.817,0,1,0,2.817,2.817A2.815,2.815,0,0,0,119.75,130.713Z" transform="translate(66.928 74.92)"/><path class="c" d="M128.334,130.713a2.817,2.817,0,1,0,2.817,2.817A2.917,2.917,0,0,0,128.334,130.713Z" transform="translate(70.65 74.92)"/><path class="c" d="M136.815,130.713a2.817,2.817,0,1,0,2.817,2.817A2.815,2.815,0,0,0,136.815,130.713Z" transform="translate(74.328 74.92)"/><path class="c" d="M145.4,130.713a2.817,2.817,0,1,0,2.817,2.817A2.917,2.917,0,0,0,145.4,130.713Z" transform="translate(78.05 74.92)"/><path class="c" d="M153.879,130.713a2.817,2.817,0,1,0,2.817,2.817A2.724,2.724,0,0,0,153.879,130.713Z" transform="translate(81.727 74.92)"/><path class="c" d="M59.869,139.3a2.815,2.815,0,0,0-2.817,2.817,2.917,2.917,0,0,0,2.817,2.817,2.817,2.817,0,1,0,0-5.634Z" transform="translate(40.963 78.643)"/><path class="c" d="M68.453,139.3a2.815,2.815,0,0,0-2.817,2.817,2.917,2.917,0,0,0,2.817,2.817,2.817,2.817,0,1,0,0-5.634Z" transform="translate(44.685 78.643)"/><path class="c" d="M77.037,139.3a2.815,2.815,0,0,0-2.817,2.817,2.916,2.916,0,0,0,2.817,2.817,2.815,2.815,0,0,0,2.817-2.817A2.917,2.917,0,0,0,77.037,139.3Z" transform="translate(48.407 78.643)"/><path class="c" d="M85.517,139.3a2.815,2.815,0,0,0-2.817,2.817,2.917,2.917,0,0,0,2.817,2.817,2.817,2.817,0,1,0,0-5.634Z" transform="translate(52.084 78.643)"/><path class="c" d="M94.1,139.3a2.815,2.815,0,0,0-2.817,2.817,2.916,2.916,0,0,0,2.817,2.817,2.817,2.817,0,1,0,0-5.634Z" transform="translate(55.806 78.643)"/><path class="c" d="M102.685,139.3a2.815,2.815,0,0,0-2.816,2.817,2.916,2.916,0,0,0,2.816,2.817,2.815,2.815,0,0,0,2.817-2.817A2.916,2.916,0,0,0,102.685,139.3Z" transform="translate(59.529 78.643)"/><path class="c" d="M111.166,139.3a2.815,2.815,0,0,0-2.817,2.817,2.917,2.917,0,0,0,2.817,2.817,2.817,2.817,0,1,0,0-5.634Z" transform="translate(63.206 78.643)"/><path class="c" d="M119.75,139.3a2.815,2.815,0,0,0-2.817,2.817,2.917,2.917,0,0,0,2.817,2.817,2.817,2.817,0,0,0,0-5.634Z" transform="translate(66.928 78.643)"/><path class="c" d="M128.334,139.3a2.815,2.815,0,0,0-2.817,2.817,2.917,2.917,0,0,0,2.817,2.817,2.815,2.815,0,0,0,2.817-2.817A2.917,2.917,0,0,0,128.334,139.3Z" transform="translate(70.65 78.643)"/><path class="c" d="M136.815,139.3A2.815,2.815,0,0,0,134,142.114a2.916,2.916,0,0,0,2.817,2.817,2.817,2.817,0,0,0,0-5.634Z" transform="translate(74.328 78.643)"/><path class="c" d="M145.4,139.3a2.815,2.815,0,0,0-2.817,2.817,2.916,2.916,0,0,0,2.817,2.817,2.816,2.816,0,0,0,2.817-2.817A2.917,2.917,0,0,0,145.4,139.3Z" transform="translate(78.05 78.643)"/><path class="c" d="M153.879,139.3a2.815,2.815,0,0,0-2.817,2.817,2.917,2.917,0,0,0,2.817,2.817,2.817,2.817,0,1,0,0-5.634Z" transform="translate(81.727 78.643)"/><path class="c" d="M59.869,147.881a2.817,2.817,0,1,0,2.817,2.817A2.646,2.646,0,0,0,59.869,147.881Z" transform="translate(40.963 82.365)"/><path class="c" d="M68.453,147.881A2.817,2.817,0,1,0,71.27,150.7,2.727,2.727,0,0,0,68.453,147.881Z" transform="translate(44.685 82.365)"/><path class="c" d="M77.037,147.881a2.817,2.817,0,1,0,2.817,2.817A2.815,2.815,0,0,0,77.037,147.881Z" transform="translate(48.407 82.365)"/><path class="c" d="M85.517,147.881a2.817,2.817,0,1,0,2.817,2.817A2.646,2.646,0,0,0,85.517,147.881Z" transform="translate(52.084 82.365)"/><path class="c" d="M94.1,147.881a2.817,2.817,0,1,0,2.817,2.817A2.727,2.727,0,0,0,94.1,147.881Z" transform="translate(55.806 82.365)"/><path class="c" d="M102.685,147.881A2.817,2.817,0,1,0,105.5,150.7,2.815,2.815,0,0,0,102.685,147.881Z" transform="translate(59.529 82.365)"/><path class="c" d="M111.166,147.881a2.817,2.817,0,1,0,2.817,2.817A2.726,2.726,0,0,0,111.166,147.881Z" transform="translate(63.206 82.365)"/><path class="c" d="M119.75,147.881a2.817,2.817,0,1,0,2.817,2.817A2.726,2.726,0,0,0,119.75,147.881Z" transform="translate(66.928 82.365)"/><path class="c" d="M128.334,147.881a2.817,2.817,0,1,0,2.817,2.817A2.815,2.815,0,0,0,128.334,147.881Z" transform="translate(70.65 82.365)"/><path class="c" d="M136.815,147.881a2.817,2.817,0,1,0,2.817,2.817A2.727,2.727,0,0,0,136.815,147.881Z" transform="translate(74.328 82.365)"/><path class="c" d="M145.4,147.881a2.817,2.817,0,1,0,2.817,2.817A2.815,2.815,0,0,0,145.4,147.881Z" transform="translate(78.05 82.365)"/><path class="c" d="M153.879,147.881A2.817,2.817,0,1,0,156.7,150.7,2.646,2.646,0,0,0,153.879,147.881Z" transform="translate(81.727 82.365)"/><path class="c" d="M59.869,156.362a2.817,2.817,0,1,0,2.817,2.817A2.724,2.724,0,0,0,59.869,156.362Z" transform="translate(40.963 86.042)"/><path class="c" d="M68.453,156.362a2.817,2.817,0,1,0,2.817,2.817A2.815,2.815,0,0,0,68.453,156.362Z" transform="translate(44.685 86.042)"/><path class="c" d="M77.037,156.362a2.817,2.817,0,1,0,2.817,2.817A2.917,2.917,0,0,0,77.037,156.362Z" transform="translate(48.407 86.042)"/><path class="c" d="M85.517,156.362a2.817,2.817,0,1,0,2.817,2.817A2.724,2.724,0,0,0,85.517,156.362Z" transform="translate(52.084 86.042)"/><path class="c" d="M94.1,156.362a2.817,2.817,0,1,0,2.817,2.817A2.815,2.815,0,0,0,94.1,156.362Z" transform="translate(55.806 86.042)"/><path class="c" d="M102.685,156.362a2.817,2.817,0,1,0,2.817,2.817A2.916,2.916,0,0,0,102.685,156.362Z" transform="translate(59.529 86.042)"/><path class="c" d="M111.166,156.362a2.817,2.817,0,1,0,2.817,2.817A2.815,2.815,0,0,0,111.166,156.362Z" transform="translate(63.206 86.042)"/><path class="c" d="M119.75,156.362a2.817,2.817,0,1,0,2.817,2.817A2.815,2.815,0,0,0,119.75,156.362Z" transform="translate(66.928 86.042)"/><path class="c" d="M128.334,156.362a2.817,2.817,0,1,0,2.817,2.817A2.917,2.917,0,0,0,128.334,156.362Z" transform="translate(70.65 86.042)"/><path class="c" d="M136.815,156.362a2.817,2.817,0,1,0,2.817,2.817A2.815,2.815,0,0,0,136.815,156.362Z" transform="translate(74.328 86.042)"/><path class="c" d="M145.4,156.362a2.817,2.817,0,1,0,2.817,2.817A2.917,2.917,0,0,0,145.4,156.362Z" transform="translate(78.05 86.042)"/><path class="c" d="M153.879,156.362a2.817,2.817,0,1,0,2.817,2.817A2.724,2.724,0,0,0,153.879,156.362Z" transform="translate(81.727 86.042)"/><path class="c" d="M59.869,164.946a2.817,2.817,0,1,0,2.817,2.817A2.724,2.724,0,0,0,59.869,164.946Z" transform="translate(40.963 89.764)"/><path class="c" d="M68.453,164.946a2.817,2.817,0,1,0,2.817,2.817A2.815,2.815,0,0,0,68.453,164.946Z" transform="translate(44.685 89.764)"/><path class="c" d="M77.037,164.946a2.817,2.817,0,1,0,2.817,2.817A2.917,2.917,0,0,0,77.037,164.946Z" transform="translate(48.407 89.764)"/><path class="c" d="M85.517,164.946a2.817,2.817,0,1,0,2.817,2.817A2.724,2.724,0,0,0,85.517,164.946Z" transform="translate(52.084 89.764)"/><path class="c" d="M94.1,164.946a2.817,2.817,0,1,0,2.817,2.817A2.815,2.815,0,0,0,94.1,164.946Z" transform="translate(55.806 89.764)"/><path class="c" d="M102.685,164.946a2.817,2.817,0,1,0,2.817,2.817A2.916,2.916,0,0,0,102.685,164.946Z" transform="translate(59.529 89.764)"/><path class="c" d="M111.166,164.946a2.817,2.817,0,1,0,2.817,2.817A2.815,2.815,0,0,0,111.166,164.946Z" transform="translate(63.206 89.764)"/><path class="c" d="M119.75,164.946a2.817,2.817,0,1,0,2.817,2.817A2.815,2.815,0,0,0,119.75,164.946Z" transform="translate(66.928 89.764)"/><path class="c" d="M128.334,164.946a2.817,2.817,0,1,0,2.817,2.817A2.917,2.917,0,0,0,128.334,164.946Z" transform="translate(70.65 89.764)"/><path class="c" d="M136.815,164.946a2.817,2.817,0,1,0,2.817,2.817A2.815,2.815,0,0,0,136.815,164.946Z" transform="translate(74.328 89.764)"/><path class="c" d="M145.4,164.946a2.817,2.817,0,1,0,2.817,2.817A2.917,2.917,0,0,0,145.4,164.946Z" transform="translate(78.05 89.764)"/><path class="c" d="M153.879,164.946a2.817,2.817,0,1,0,2.817,2.817A2.724,2.724,0,0,0,153.879,164.946Z" transform="translate(81.727 89.764)"/></g></svg>